<svg preserveAspectRatio="xMinYMid" width="20" height="20" viewBox="0 0 20 20" fill="none" xmlns="http://www.w3.org/2000/svg"><path d="M9.39732 9.0067C9.13839 9.11607 8.9308 9.27902 8.77679 9.49777C8.62277 9.71652 8.54464 9.97991 8.54464 10.2902C8.54464 10.6875 8.71205 10.9933 9.04464 11.2098C9.35938 11.4129 9.68973 11.4643 10.0357 11.3616C10.4353 11.2455 10.7054 10.9621 10.8482 10.5112C10.9152 10.3036 10.9487 10.0714 10.9487 9.8125V8.69196C10.6674 8.70089 10.404 8.72768 10.1562 8.77455C9.90848 8.82143 9.65625 8.89955 9.39732 9.0067ZM10 0C4.47768 0 0 4.47768 0 10C0 15.5223 4.47768 20 10 20C15.5223 20 20 15.5223 20 10C20 4.47768 15.5223 0 10 0ZM10.7991 5.86384C10.6384 5.62054 10.3504 5.49777 9.93527 5.49777C9.90625 5.49777 9.8683 5.5 9.81696 5.50446C9.76786 5.50893 9.66964 5.53795 9.52902 5.58705C9.38777 5.63758 9.25352 5.70583 9.12946 5.79018C9.0067 5.875 8.87277 6.01339 8.72768 6.20089C8.58482 6.39062 8.47098 6.61161 8.38616 6.86607L6.28795 6.67857C6.28795 6.40179 6.34152 6.12723 6.4442 5.85491C6.54911 5.58259 6.70759 5.32143 6.92188 5.07366C7.13616 4.82366 7.39286 4.60491 7.69196 4.41741C7.99107 4.22768 8.35268 4.07812 8.77232 3.96429C9.1942 3.85045 9.64509 3.79464 10.1317 3.79464C10.6071 3.79464 11.0379 3.85268 11.4219 3.96652C11.8058 4.08259 12.1161 4.22321 12.346 4.39286C12.5675 4.55267 12.7626 4.74624 12.9241 4.96652C13.0781 5.1808 13.1853 5.37946 13.2455 5.5625C13.3058 5.74554 13.3348 5.91295 13.3348 6.07143V10.1451C13.3348 10.2879 13.3661 10.4353 13.4308 10.5871C13.4955 10.7388 13.5714 10.8728 13.6585 10.9888C13.7455 11.1049 13.8348 11.2098 13.9263 11.308C14.0179 11.404 14.096 11.4799 14.1629 11.529L14.2545 11.6049L12.6362 13.154C12.4464 12.9821 12.2589 12.8103 12.0737 12.6317C11.8884 12.4531 11.75 12.3192 11.6607 12.2277L11.5246 12.0893C11.471 12.0379 11.4129 11.9621 11.346 11.8616C11.1652 12.1339 10.933 12.3705 10.6518 12.5714C10.3683 12.7723 10.0647 12.9196 9.7433 13.0112C9.41964 13.1027 9.08705 13.1562 8.74554 13.1696C8.40402 13.183 8.07589 13.1362 7.76562 13.0246C7.45536 12.9129 7.17411 12.7634 6.92634 12.5714C6.67857 12.3795 6.48214 12.1205 6.33482 11.7902C6.1875 11.4598 6.11384 11.0871 6.11384 10.6652C6.11384 10.2768 6.1808 9.92188 6.3125 9.60045C6.44643 9.27679 6.61607 9.00893 6.82589 8.79464C7.03571 8.58036 7.28795 8.38839 7.58482 8.22098C7.8817 8.05357 8.17411 7.92188 8.45982 7.82589C8.74554 7.73214 9.05357 7.65179 9.38616 7.58705C9.71875 7.52232 10.0022 7.47991 10.2388 7.45982C10.4754 7.43973 10.7121 7.42411 10.9487 7.41518V6.53571C10.9487 6.23438 10.8973 6.01116 10.7991 5.86384ZM14.8281 14.3371C14.7656 14.4107 14.6607 14.5112 14.5134 14.6384C14.3661 14.7656 14.1384 14.9219 13.8326 15.1094C13.5268 15.2969 13.1897 15.4665 12.8281 15.6205C12.4643 15.7746 12.0179 15.9085 11.4866 16.0223C10.9576 16.1362 10.4107 16.192 9.85045 16.192C9.28348 16.192 8.71875 16.1205 8.15179 15.9777C7.58482 15.8348 7.08929 15.6585 6.66071 15.4487C6.23438 15.2388 5.82143 14.9978 5.4308 14.7299C5.03795 14.4598 4.72321 14.2188 4.48438 14.0045C4.24777 13.7902 4.04688 13.5871 3.88616 13.3996C3.84821 13.3571 3.82366 13.3192 3.81473 13.2857C3.8058 13.2522 3.80804 13.2232 3.82143 13.2031C3.83482 13.183 3.85491 13.1674 3.87946 13.154C3.90613 13.1422 3.93545 13.1376 3.96445 13.1407C3.99346 13.1439 4.02112 13.1546 4.04464 13.1719C4.95759 13.7121 5.67188 14.0938 6.18527 14.3192C8.03572 15.1317 9.93527 15.3393 11.8839 14.942C12.7879 14.7567 13.7165 14.4464 14.6719 14.0089C14.7433 13.9821 14.8058 13.9754 14.8571 13.9888C14.9085 14.0022 14.9353 14.0424 14.9353 14.1094C14.9353 14.1719 14.8996 14.25 14.8281 14.3371ZM16.1652 13.6897C16.125 13.9375 16.0558 14.1719 15.9621 14.3996C15.8013 14.7812 15.5982 15.0692 15.3571 15.2567C15.2768 15.3214 15.2143 15.3415 15.1719 15.3192C15.1295 15.2969 15.1295 15.2411 15.1719 15.154C15.2723 14.9464 15.3772 14.6674 15.4888 14.3125C15.6004 13.9598 15.6161 13.7321 15.5357 13.6317C15.5112 13.5982 15.4754 13.5737 15.4241 13.5513C15.375 13.5312 15.3103 13.5179 15.2321 13.5089C15.154 13.5 15.0826 13.4955 15.0223 13.4911C14.9598 13.4866 14.8772 13.4866 14.7723 13.4911C14.6674 13.4955 14.5938 13.5 14.5469 13.5045C14.4198 13.5169 14.2925 13.528 14.1652 13.5379C14.1362 13.5424 14.1049 13.5469 14.0737 13.5491C14.0402 13.5513 14.0134 13.5536 13.9955 13.5558L13.9353 13.5625C13.9129 13.5647 13.8973 13.567 13.8862 13.567H13.8147L13.7924 13.5625L13.779 13.5513L13.7679 13.5313C13.7388 13.4576 13.8504 13.3661 14.1027 13.2545C14.3549 13.1429 14.6004 13.0737 14.8371 13.0469C15.0558 13.0134 15.3125 13.0134 15.6071 13.0402C15.9018 13.067 16.0826 13.1228 16.1496 13.2054C16.2009 13.2835 16.2054 13.4442 16.1652 13.6897Z" fill="#F2F2F2"/></svg>