<svg preserveAspectRatio="xMinYMid" width="14" height="14" viewBox="0 0 14 14" fill="none" xmlns="http://www.w3.org/2000/svg"><path d="M3.88889 10.1111L1.55556 10.1111C1.143 10.1111 0.747335 9.94722 0.455611 9.6555C0.163888 9.36378 -2.19951e-07 8.96811 -2.37984e-07 8.55556L-3.73975e-07 5.44444C-3.92009e-07 5.03189 0.163888 4.63622 0.455611 4.3445C0.747334 4.05278 1.143 3.88889 1.55556 3.88889L3.88889 3.88889L3.88889 1.55556C3.88889 1.143 4.05278 0.747336 4.3445 0.455613C4.63622 0.16389 5.03189 7.33724e-07 5.44444 7.1569e-07L12.4444 4.0971e-07C12.857 3.91677e-07 13.2527 0.163889 13.5444 0.455613C13.8361 0.747336 14 1.143 14 1.55556L14 12.4444C14 12.857 13.8361 13.2527 13.5444 13.5444C13.2527 13.8361 12.857 14 12.4444 14L5.44445 14C5.03189 14 4.63622 13.8361 4.3445 13.5444C4.05278 13.2527 3.88889 12.857 3.88889 12.4444L3.88889 10.1111ZM5.44445 12.4444L12.4444 12.4444L12.4444 1.55556L5.44444 1.55556L5.44444 3.89044L7.77778 3.89044L7.77778 5.44444L5.44444 5.44444L5.44444 8.55556L7.77778 8.55556L7.77778 10.1111L5.44444 10.1111L5.44445 12.4444ZM3.88889 8.55556L3.88889 5.44444L1.55556 5.44444L1.55556 8.55556L3.88889 8.55556Z" fill="#F2F2F2"/></svg>
