<svg width="229" height="47" viewBox="0 0 229 47" fill="none" xmlns="http://www.w3.org/2000/svg">
<path d="M131.77 23.3054V30.1354C131.734 30.3243 131.739 30.5186 131.782 30.7058C131.826 30.893 131.909 31.069 132.025 31.2224C132.14 31.3759 132.287 31.5035 132.455 31.597C132.623 31.6905 132.809 31.7479 133 31.7654C133.49 31.8854 134 31.9354 134.52 32.0154V32.8354H125.76V31.8354C126.291 31.7856 126.818 31.7054 127.34 31.5954C128.25 31.3754 128.45 31.0954 128.45 30.1554V14.9254C128.45 13.5354 128.02 13.0254 126.64 12.7554C126.37 12.7054 126.1 12.6754 125.76 12.6254V11.6854C125.956 11.6556 126.152 11.6355 126.35 11.6254H136.17C136.956 11.6359 137.736 11.7537 138.49 11.9754C139.485 12.1786 140.382 12.71 141.039 13.4843C141.695 14.2587 142.072 15.231 142.11 16.2454C142.27 17.3658 142.065 18.5081 141.525 19.5025C140.984 20.497 140.137 21.2906 139.11 21.7654C138.456 22.0345 137.789 22.2681 137.11 22.4654L140.8 27.4654L142 28.9554C143.68 31.2354 143.68 31.2354 146.44 31.7654V32.8554H141.44C141.229 32.8686 141.018 32.8233 140.831 32.7245C140.644 32.6257 140.488 32.4772 140.38 32.2954C138.48 29.5654 136.54 26.8654 134.67 24.1154C134.516 23.8162 134.272 23.573 133.972 23.4204C133.673 23.2678 133.332 23.2136 133 23.2654C132.591 23.3045 132.18 23.3179 131.77 23.3054ZM131.77 22.0154H134.46C135.124 22.0056 135.772 21.814 136.335 21.4613C136.897 21.1087 137.352 20.6086 137.65 20.0154C138.058 19.2307 138.355 18.3925 138.53 17.5254C138.706 16.7239 138.61 15.8866 138.257 15.1459C137.904 14.4052 137.314 13.8033 136.58 13.4354C135.06 12.5754 133.42 12.7254 131.77 12.8054V22.0154Z" fill="#F2F2F2"/>
<path d="M147.9 24.7754C148.05 23.8654 148.13 22.8754 148.38 21.9254C148.713 20.3015 149.611 18.8483 150.915 17.8247C152.219 16.801 153.844 16.2733 155.5 16.3354C157.203 16.3743 158.847 16.9675 160.182 18.025C161.518 19.0825 162.472 20.5467 162.9 22.1954C163.245 23.6081 163.27 25.0798 162.974 26.5035C162.679 27.9272 162.069 29.267 161.19 30.4254C159.44 32.8954 156.9 33.5454 154.04 32.9954C152.641 32.7957 151.339 32.1657 150.314 31.1928C149.289 30.2198 148.592 28.9521 148.32 27.5654C148.13 26.6437 147.99 25.7123 147.9 24.7754ZM160.78 24.7754C160.552 23.3379 160.238 21.9153 159.84 20.5154C159.572 19.5903 159.006 18.7793 158.231 18.2081C157.455 17.6368 156.513 17.3372 155.55 17.3554C154.603 17.3708 153.685 17.6873 152.93 18.2591C152.175 18.8308 151.622 19.6281 151.35 20.5354C150.297 23.4067 150.394 26.5738 151.62 29.3754C151.908 30.2139 152.458 30.9373 153.189 31.4381C153.921 31.9389 154.794 32.1905 155.68 32.1554C156.574 32.1904 157.454 31.9247 158.179 31.4008C158.904 30.8769 159.432 30.1251 159.68 29.2654C160.132 27.8012 160.5 26.312 160.78 24.8054V24.7754Z" fill="#F2F2F2"/>
<path d="M215.26 16.7154H227.41V20.3354C226.86 20.5554 226.52 20.4254 226.27 19.8154C226.059 19.2409 225.717 18.7238 225.27 18.3054C224.776 17.8951 224.176 17.6318 223.54 17.5454C222.31 17.4354 221.07 17.5454 219.77 17.5454V23.8454C220.75 23.8556 221.729 23.7954 222.7 23.6654C223.113 23.5691 223.486 23.3438 223.762 23.0219C224.039 22.7001 224.207 22.2986 224.24 21.8754C224.24 21.6454 224.55 21.4754 224.71 21.2754C224.82 21.4854 225.02 21.6954 225.02 21.9154V26.7854C225.02 26.9754 224.81 27.1554 224.7 27.3454C224.54 27.1854 224.3 27.0654 224.25 26.8754C223.74 25.1554 223.35 24.8754 221.56 24.8754H219.73C219.73 26.3754 219.8 27.8154 219.73 29.2554C219.6 31.5554 220.39 31.7954 222.23 31.7454H223.9C224.863 31.804 225.812 31.4847 226.544 30.8555C227.275 30.2263 227.733 29.3367 227.82 28.3754C227.814 28.2329 227.835 28.0906 227.88 27.9554H228.56V32.6154H215.26C215.07 32.1354 215.2 31.9354 215.76 31.8754C217.18 31.7254 217.49 31.3454 217.48 29.9254V19.5654C217.48 18.2954 217.08 17.8354 215.8 17.5654C215.22 17.4054 215.22 17.4054 215.26 16.7154Z" fill="#F2F2F2"/>
<path d="M196.81 32.7154H190.88C190.72 32.7154 190.56 32.4954 190.41 32.3854C190.548 32.2494 190.702 32.1317 190.87 32.0354C191.1 31.9454 191.37 31.9554 191.61 31.8854C191.842 31.8507 192.051 31.7267 192.193 31.5399C192.335 31.3531 192.399 31.1183 192.37 30.8854C192.357 30.7919 192.33 30.7008 192.29 30.6154C191.937 29.6154 191.557 28.6154 191.15 27.6154C191.085 27.5067 190.997 27.4142 190.891 27.3448C190.786 27.2755 190.665 27.2312 190.54 27.2154H185.9C185.756 27.241 185.62 27.3006 185.503 27.3893C185.387 27.478 185.293 27.5932 185.23 27.7254C184.91 28.4954 184.67 29.3054 184.41 30.0954C184.07 31.0954 184.41 31.6754 185.46 31.9154C185.686 31.9367 185.909 31.9734 186.13 32.0254C186.3 32.1223 186.455 32.2436 186.59 32.3854C186.43 32.4954 186.28 32.7054 186.12 32.7154H181.07C180.91 32.7154 180.76 32.5054 180.6 32.3854C180.73 32.2654 180.84 32.0454 180.98 32.0354C181.505 31.988 182 31.7727 182.393 31.4214C182.786 31.0702 183.055 30.6017 183.16 30.0854C184.79 25.7654 186.48 21.4754 188.16 17.1654C188.29 16.8354 188.33 16.4454 188.88 16.4454C189.43 16.4454 189.47 16.8454 189.6 17.1754L194.79 30.3454C194.912 30.7472 195.143 31.1073 195.457 31.3861C195.772 31.6649 196.157 31.8516 196.57 31.9254C196.76 31.9254 196.9 32.2354 197.06 32.4054L196.81 32.7154ZM185.81 26.0854H190.61C189.8 24.0854 189.02 22.2054 188.16 20.0854L185.81 26.0854Z" fill="#F2F2F2"/>
<path d="M171.35 17.4754C169.35 17.6454 169.17 18.0854 170.18 19.8454C171.09 21.3954 172 22.9554 172.98 24.6454C173.24 24.2254 173.43 23.9254 173.62 23.6454L176.14 19.4754C176.94 18.1354 176.68 17.6454 175.14 17.5954H174.51C174.72 17.2954 174.84 16.9254 174.98 16.9154H179.77L180 17.0854C179.83 17.3054 179.7 17.6354 179.47 17.7254C178.624 18.0545 177.917 18.6656 177.47 19.4554C176.27 21.4554 175.08 23.4054 173.93 25.4554C173.713 25.8794 173.6 26.349 173.6 26.8254V30.1754C173.563 30.4028 173.572 30.6352 173.625 30.8593C173.679 31.0833 173.776 31.2945 173.912 31.4805C174.048 31.6666 174.219 31.8238 174.416 31.9431C174.613 32.0624 174.832 32.1414 175.06 32.1754H175.24C175.462 32.2744 175.667 32.4058 175.85 32.5654C175.63 32.6654 175.42 32.8554 175.2 32.8554H169.2C169 32.8554 168.81 32.6754 168.61 32.5854C168.773 32.4449 168.955 32.3271 169.15 32.2354C169.53 32.1054 169.95 32.0654 170.32 31.9154C170.574 31.8268 170.793 31.658 170.942 31.4343C171.092 31.2106 171.165 30.9442 171.15 30.6754C171.15 29.4054 171.15 28.1254 171.07 26.8654C170.97 26.2655 170.752 25.6913 170.43 25.1754C169.28 23.0854 168.14 21.0854 167 18.9754C166.831 18.6447 166.585 18.36 166.282 18.1457C165.979 17.9315 165.628 17.7941 165.26 17.7454C164.84 17.6854 164.57 17.5554 164.82 16.9554H170.92C171.13 16.9554 171.33 17.2054 171.53 17.3454L171.35 17.4754Z" fill="#F2F2F2"/>
<path d="M212 32.6454H200C199.764 32.5939 199.541 32.4989 199.34 32.3654C199.54 32.2354 199.72 32.0354 199.94 32.0054C201.04 31.8254 201.61 31.2854 201.61 30.1954V18.9954C201.61 18.2054 201 17.7154 199.87 17.5254C199.36 17.4354 199.36 17.4354 199.36 16.8254C199.497 16.7843 199.638 16.7575 199.78 16.7454H205.57C205.76 16.7454 205.95 16.9354 206.14 17.0454C205.96 17.1854 205.8 17.4354 205.6 17.4654C204.06 17.7254 203.88 17.9254 203.89 19.4654V30.1354C203.823 30.508 203.906 30.8919 204.122 31.2031C204.337 31.5143 204.668 31.7273 205.04 31.7954H205.18C208.08 32.4354 210.58 31.4254 211.38 28.4354C211.44 28.2354 211.65 28.0754 211.79 27.8954C211.88 28.0833 211.947 28.2814 211.99 28.4854C212.05 29.8654 212 31.2054 212 32.6454Z" fill="#F2F2F2"/>
<path d="M0 12.0854H10.28C10.9131 12.1021 11.5416 12.1996 12.15 12.3754C16.02 13.3754 17.15 16.2454 16.09 19.6154C15.7527 20.6073 15.1663 21.496 14.3872 22.1963C13.608 22.8967 12.6621 23.3853 11.64 23.6154C10.8057 23.827 9.95041 23.9444 9.09 23.9654C8.21 24.0154 7.33 23.9654 6.34 23.9654V25.9154C6.34 27.4454 6.4 28.9654 6.34 30.4854C6.29983 30.7938 6.38199 31.1057 6.56889 31.3543C6.75579 31.6028 7.03258 31.7684 7.34 31.8154C7.97 31.9954 8.62 32.0654 9.34 32.1954V33.2654H0.34V32.2654C0.81 32.1954 1.28 32.1554 1.74 32.0554C2.09552 32.0297 2.42675 31.8655 2.66239 31.5981C2.89804 31.3306 3.01927 30.9813 3 30.6254C3.0048 30.5422 3.0048 30.4587 3 30.3754V15.2254C3.05117 14.7361 2.90952 14.2461 2.60515 13.8596C2.30077 13.473 1.85767 13.2204 1.37 13.1554L0 12.9454V12.0854ZM6.35 22.3654C9.35 22.6554 10.88 22.4854 12.04 20.6054C12.5521 19.6953 12.8085 18.6637 12.7821 17.6198C12.7557 16.5758 12.4474 15.5585 11.89 14.6754C10.81 13.3154 8.39 12.7654 6.35 13.4054V22.3654Z" fill="#F2F2F2"/>
<path d="M94 33.0054H80.65V32.3554C82.92 31.8254 82.91 31.8254 82.9 29.5154V19.9854C82.9 18.6054 82.53 18.1854 81.13 17.9254L80.67 17.8154V17.1454H92.83V20.7754C92.26 20.9754 91.95 20.7754 91.7 20.2454C91.4314 19.6474 91.0627 19.0996 90.61 18.6254C90.2531 18.2701 89.7893 18.0417 89.29 17.9754C87.95 17.8854 86.61 17.9754 85.2 17.9754V24.1954C86.0626 24.2454 86.9274 24.2454 87.79 24.1954C88.2629 24.1367 88.7026 23.9219 89.0395 23.5849C89.3765 23.248 89.5913 22.8083 89.65 22.3354C89.71 22.1054 89.95 21.9254 90.11 21.7154C90.22 21.9454 90.43 22.1854 90.43 22.4154V27.4154C90.4405 27.4984 90.4405 27.5824 90.43 27.6654C89.99 27.8754 89.79 27.7354 89.67 27.2454C89.29 25.6354 88.76 25.2454 87.13 25.2454H85.22V30.5954C85.22 31.4454 85.62 32.0054 86.45 32.0454C87.7362 32.1854 89.0338 32.1854 90.32 32.0454C91.0621 31.9338 91.746 31.5784 92.2638 31.0353C92.7817 30.4921 93.104 29.792 93.18 29.0454C93.24 28.7854 93.28 28.5054 93.37 27.9654C93.66 28.2354 94 28.3954 94 28.5654V33.0054Z" fill="#F2F2F2"/>
<path d="M19.9401 33.1954H14.1001L13.9301 33.0854C14.0901 32.9154 14.2301 32.6154 14.4201 32.5954C14.9117 32.5339 15.3734 32.3253 15.7445 31.997C16.1157 31.6687 16.379 31.2359 16.5001 30.7554C18.1301 26.4354 19.8201 22.1454 21.5001 17.8354C21.6401 17.4954 21.6501 17.0454 22.2501 17.0454C22.8501 17.0454 22.8601 17.4854 23.0001 17.8354C24.7267 22.2087 26.4501 26.5754 28.1701 30.9354C28.2968 31.3407 28.5361 31.7015 28.8601 31.9759C29.1842 32.2504 29.5795 32.4271 30.0001 32.4854C30.1901 32.4854 30.3301 32.8054 30.4901 32.9754L30.3501 33.2154H24.3501C24.1901 33.2154 24.0401 33.0054 23.8901 32.8854C24.0006 32.7515 24.1324 32.6367 24.2801 32.5454C24.504 32.4934 24.7312 32.4566 24.9601 32.4354C25.1174 32.415 25.2677 32.3574 25.3984 32.2674C25.5291 32.1774 25.6365 32.0576 25.7117 31.9178C25.7869 31.7781 25.8278 31.6225 25.831 31.4638C25.8342 31.3052 25.7996 31.148 25.7301 31.0054C25.3501 30.0854 25.0001 29.0854 24.6001 28.1554C24.5316 28.0369 24.4362 27.9362 24.3215 27.8614C24.2068 27.7867 24.0761 27.7401 23.9401 27.7254H19.2901C19.1583 27.7492 19.0338 27.8031 18.9262 27.8829C18.8187 27.9627 18.731 28.0662 18.6701 28.1854C18.3501 28.9654 18.1101 29.7654 17.8501 30.5654C17.4901 31.6254 17.8501 32.1954 18.9201 32.4254C19.1468 32.4366 19.3716 32.4735 19.5901 32.5354C19.7766 32.662 19.942 32.8172 20.0801 32.9954L19.9401 33.1954ZM21.7201 20.8254H21.5301L19.2801 26.5454H24.0801L21.7201 20.8254Z" fill="#F2F2F2"/>
<path d="M53.29 32.7154C53.1 32.8554 52.91 33.1154 52.72 33.1154H47.72C47.52 33.1154 47.32 32.8654 47.12 32.7354L47.24 32.4954L47.74 32.4054C48.1691 32.3593 48.5755 32.189 48.9094 31.9155C49.2433 31.642 49.4903 31.2771 49.62 30.8654C51.27 26.4654 53 22.0854 54.71 17.6754C54.85 17.3154 54.88 16.8854 55.48 16.8954C56.08 16.9054 56.05 17.3254 56.17 17.6554C57.8967 21.9954 59.61 26.3287 61.31 30.6554C61.4233 31.0878 61.6591 31.4783 61.9891 31.7799C62.3191 32.0815 62.7291 32.2814 63.17 32.3554C63.35 32.3554 63.48 32.6854 63.63 32.8654L63.48 33.0754H57.4C57.28 33.0754 57.16 32.8454 57.03 32.7254C57.14 32.6254 57.24 32.4554 57.37 32.4254C59.23 31.9654 59.27 31.8854 58.59 30.0754C58.53 29.9154 58.47 29.7454 58.4 29.5854C58.13 28.9254 58.02 28.0354 57.53 27.6954C57.04 27.3554 56.16 27.5854 55.46 27.5754H52.64C52.4531 27.5402 52.2598 27.5804 52.1025 27.6872C51.9451 27.794 51.8363 27.9587 51.8 28.1454C51.7953 28.1651 51.7953 28.1857 51.8 28.2054C51.59 28.9654 51.3 29.6954 51.06 30.4454C50.7 31.5454 50.99 32.0554 52.13 32.3054C52.45 32.3754 52.78 32.4154 53.13 32.4654L53.29 32.7154ZM57.29 26.5054C56.47 24.5054 55.69 22.6054 54.84 20.5054L52.48 26.5054H57.29Z" fill="#F2F2F2"/>
<path d="M62.71 17.1654H68.9C69.07 17.1654 69.23 17.4454 69.4 17.5954L69.26 17.8054H68.6C67.65 17.8554 67.2 18.4454 67.6 19.2854C68.6 21.1554 69.7 22.9754 70.83 24.9554L72.67 21.9554C73.15 21.1554 73.67 20.3554 74.12 19.5354C74.73 18.4754 74.46 17.9754 73.25 17.9054H72.56C72.39 17.4654 72.38 17.1654 72.93 17.1654H77.19C77.36 17.1654 77.64 17.3654 77.65 17.4854C77.6442 17.5854 77.6125 17.6821 77.5582 17.7662C77.5039 17.8503 77.4287 17.919 77.34 17.9654C76.4075 18.327 75.6393 19.0169 75.18 19.9054C74.07 21.7554 72.94 23.5954 71.88 25.4654C71.6273 25.9697 71.4842 26.5218 71.46 27.0854C71.39 28.1654 71.46 29.2654 71.46 30.3554C71.4278 30.5881 71.4422 30.825 71.5024 31.0521C71.5626 31.2792 71.6675 31.492 71.8108 31.6782C71.9542 31.8643 72.1332 32.0201 72.3373 32.1364C72.5415 32.2526 72.7668 32.3271 73 32.3554H73.07C73.308 32.4548 73.5277 32.5934 73.72 32.7654C73.4841 32.8964 73.2267 32.9844 72.96 33.0254H67.1C66.89 33.0254 66.67 32.8354 66.46 32.7354C66.6323 32.5943 66.8288 32.4859 67.04 32.4154C68.68 32.1654 68.87 31.7954 69.04 30.1354C69.239 27.7216 68.5997 25.3129 67.23 23.3154C66.37 22.0054 65.72 20.5554 64.97 19.1754C64.8026 18.8302 64.5508 18.5328 64.2379 18.3109C63.925 18.0889 63.5611 17.9494 63.18 17.9054C62.67 17.8854 62.47 17.7154 62.71 17.1654Z" fill="#F2F2F2"/>
<path d="M38.63 17.2554C38.82 17.7454 38.72 17.9354 38.22 18.0054C36.65 18.1954 36.47 18.4154 36.47 20.0054V30.7454C36.47 31.6954 36.72 32.1254 37.64 32.3454C40.51 32.9854 43.07 32.0854 44 29.0854C44.0099 28.9836 44.0405 28.8849 44.09 28.7954C44.1922 28.6748 44.3025 28.5612 44.42 28.4554C44.5 28.5954 44.66 28.7254 44.66 28.8554V33.0854C44.38 33.0854 44.13 33.1454 43.89 33.1454H32.7C32.33 33.1454 31.86 33.2354 32.07 32.5354L32.48 32.4754C32.9409 32.4945 33.3907 32.3307 33.7315 32.0199C34.0724 31.709 34.2767 31.2761 34.3 30.8154C34.3099 30.7023 34.3099 30.5885 34.3 30.4754V19.9954C34.3 18.8254 33.91 18.2954 32.67 17.9954C32.38 17.9354 31.89 18.0454 32.03 17.5154C32.08 17.3554 32.49 17.2154 32.74 17.2054C34.64 17.2454 36.64 17.2554 38.63 17.2554Z" fill="#F2F2F2"/>
<path d="M109.72 8.79544C109.553 8.56901 109.451 8.30201 109.423 8.02232C109.394 7.74264 109.442 7.46052 109.56 7.20544C109.71 6.67544 109.83 6.13544 109.98 5.48544C110.184 5.69222 110.319 5.95731 110.365 6.24399C110.412 6.53066 110.368 6.82473 110.24 7.08544C110.06 7.61544 109.9 8.18544 109.72 8.79544Z" fill="#F2F2F2"/>
<path d="M110.31 41.0854C109.52 39.9654 110.6 38.9254 110.47 37.7254C110.698 37.8945 110.861 38.1366 110.932 38.4114C111.003 38.6863 110.978 38.9771 110.86 39.2354C110.67 39.8554 110.5 40.4554 110.31 41.0854Z" fill="#F2F2F2"/>
<path d="M111 23.1554C110.59 23.3954 110.38 23.6254 110.18 23.6154C110.074 23.5814 109.978 23.5202 109.902 23.4377C109.827 23.3553 109.774 23.2545 109.75 23.1454C109.78 23.0387 109.836 22.9409 109.913 22.8608C109.99 22.7806 110.085 22.7204 110.19 22.6854C110.4 22.6854 110.61 22.9054 111 23.1554Z" fill="#F2F2F2"/>
<path d="M111 13.0854C111.547 12.6343 112.122 12.2169 112.72 11.8354C112.885 11.7006 113.076 11.6001 113.281 11.5396C113.485 11.4792 113.7 11.46 113.912 11.4833C114.124 11.5065 114.33 11.5718 114.517 11.6751C114.703 11.7785 114.868 11.918 115 12.0854C115.052 12.148 115.099 12.2149 115.14 12.2854C115.425 12.7194 115.548 13.2398 115.488 13.7554C115.427 14.2711 115.187 14.749 114.81 15.1054C114.344 15.3339 113.812 15.3872 113.31 15.2554C112.692 15.0264 112.099 14.7349 111.54 14.3854L110.69 15.6054L112.27 17.6954L112.55 17.4554C112.94 17.01 113.452 16.6897 114.023 16.5349C114.595 16.3801 115.199 16.3977 115.76 16.5854C116.321 16.7724 116.812 17.1246 117.169 17.5957C117.526 18.0669 117.732 18.635 117.76 19.2254C117.815 19.939 118.124 20.6094 118.63 21.1154C119.315 21.8356 119.687 22.7985 119.662 23.7923C119.638 24.7862 119.22 25.7297 118.5 26.4154L118.31 26.5854C118.189 26.7287 118.119 26.908 118.11 27.0954V28.0954C117.84 30.0954 116.29 30.8654 114.56 29.8954C113.908 29.4632 113.293 28.9782 112.72 28.4454C112.21 29.2754 111.66 30.1554 111.15 31.0454C111.127 31.1335 111.123 31.2255 111.139 31.3151C111.154 31.4048 111.189 31.4901 111.24 31.5654C111.47 31.8954 111.75 32.1854 111.99 32.4754C112.469 32.1123 112.97 31.7784 113.49 31.4754C113.836 31.2796 114.239 31.2076 114.631 31.2712C115.024 31.3348 115.383 31.5303 115.65 31.8254C115.857 32.1897 115.966 32.6015 115.966 33.0204C115.966 33.4394 115.857 33.8511 115.65 34.2154C115.47 34.4674 115.209 34.6503 114.911 34.734C114.613 34.8176 114.295 34.797 114.01 34.6754C113.433 34.4351 112.872 34.1579 112.33 33.8454C112.012 34.21 111.721 34.5977 111.46 35.0054C111.381 35.2251 111.381 35.4657 111.46 35.6854C111.822 36.7363 112.119 37.8083 112.35 38.8954C112.468 39.7041 112.388 40.5292 112.118 41.3006C111.849 42.0719 111.396 42.7666 110.8 43.3254C110.986 44.0739 111.133 44.8316 111.24 45.5954C111.274 45.8579 111.203 46.1232 111.041 46.3332C110.88 46.5431 110.642 46.6806 110.38 46.7154H110.24C109.98 46.7653 109.711 46.7102 109.492 46.5621C109.272 46.4141 109.121 46.1851 109.07 45.9254C109.06 45.8558 109.06 45.7851 109.07 45.7154C109.13 44.7323 109.25 43.7538 109.43 42.7854C107.43 40.2354 107.63 38.7054 110.43 34.6654L109.22 33.6154C108.748 33.9651 108.234 34.2541 107.69 34.4754C107.102 34.6647 106.474 34.6957 105.87 34.5654C105.67 34.5315 105.479 34.4586 105.308 34.3507C105.136 34.2429 104.988 34.1022 104.871 33.9369C104.754 33.7715 104.67 33.5847 104.626 33.3871C104.581 33.1895 104.576 32.9851 104.61 32.7854C104.638 32.6476 104.682 32.5135 104.74 32.3854C105.21 31.1654 106.08 30.7054 107.19 31.1754C107.815 31.5009 108.42 31.8649 109 32.2654C109.26 31.8554 109.56 31.4354 109.82 30.9754C109.855 30.902 109.873 30.8217 109.873 30.7404C109.873 30.6592 109.855 30.5789 109.82 30.5054C109.34 29.8354 108.82 29.1754 108.33 28.5054C107.81 28.9154 107.33 29.3154 106.9 29.6254C106.471 29.9319 105.977 30.1347 105.456 30.218C104.936 30.3013 104.403 30.2628 103.9 30.1054C103.34 29.9931 102.839 29.6824 102.49 29.2304C102.141 28.7784 101.967 28.2156 102 27.6454C102.03 26.8878 101.831 26.1387 101.43 25.4954C101.031 24.8362 100.812 24.084 100.795 23.3138C100.777 22.5435 100.962 21.7822 101.33 21.1054C101.712 20.2969 101.897 19.4093 101.87 18.5154C101.851 18.2098 101.894 17.9034 101.995 17.6145C102.097 17.3256 102.255 17.06 102.461 16.8334C102.668 16.6068 102.917 16.4239 103.195 16.2954C103.473 16.167 103.774 16.0955 104.08 16.0854C104.336 16.0753 104.593 16.1056 104.84 16.1754C105.644 16.4539 106.407 16.8372 107.11 17.3154C107.27 17.4054 107.38 17.6154 107.56 17.8154L109.66 14.9454L108.66 13.7954C108.19 14.1954 107.77 14.5854 107.32 14.9354C106.952 15.2699 106.472 15.4552 105.975 15.4552C105.478 15.4552 104.998 15.2699 104.63 14.9354C104.318 14.4863 104.169 13.944 104.207 13.3985C104.245 12.8529 104.468 12.3367 104.84 11.9354C105.04 11.7148 105.306 11.5653 105.598 11.5093C105.89 11.4534 106.193 11.4942 106.46 11.6254C107.04 11.8754 107.58 12.2054 108.14 12.4954C109.14 11.5854 109.14 11.5954 108.61 10.4154C107.61 7.95543 107.49 5.53543 109.05 3.21543C109.152 2.99992 109.173 2.75524 109.11 2.52543C109.05 2.04543 108.88 1.57543 108.87 1.10543C108.845 0.841568 108.926 0.578546 109.094 0.374161C109.263 0.169776 109.506 0.0407488 109.77 0.0154316C109.886 -0.00514386 110.004 -0.00514386 110.12 0.0154316C110.251 0.00157212 110.383 0.0136047 110.509 0.0508414C110.635 0.088078 110.752 0.149789 110.854 0.232445C110.957 0.315101 111.041 0.417083 111.104 0.532558C111.167 0.648034 111.206 0.77474 111.22 0.905432C111.24 1.02462 111.24 1.14625 111.22 1.26543C111.13 1.85543 110.85 2.41543 110.7 3.00543C110.608 3.24007 110.608 3.50079 110.7 3.73543C111.325 4.4976 111.724 5.41985 111.851 6.39739C111.979 7.37494 111.829 8.36858 111.42 9.26543C111.208 9.91667 110.901 10.5332 110.51 11.0954C110.423 11.181 110.354 11.283 110.307 11.3954C110.26 11.5079 110.236 11.6285 110.236 11.7504C110.236 11.8723 110.26 11.993 110.307 12.1054C110.354 12.2179 110.423 12.3198 110.51 12.4054C110.564 12.4691 110.628 12.5232 110.7 12.5654C110.826 12.7227 110.927 12.898 111 13.0854ZM108 22.7754C107.48 22.1954 107 21.6754 106.54 21.1954C106.462 21.141 106.374 21.1031 106.281 21.0842C106.189 21.0653 106.093 21.0657 106 21.0854C105.485 21.3806 104.898 21.5266 104.304 21.5072C103.711 21.4878 103.135 21.3037 102.64 20.9754C102.011 21.6412 101.636 22.5079 101.583 23.4226C101.53 24.3373 101.802 25.2413 102.35 25.9754C103.22 24.8254 104.25 24.2854 105.61 25.1654C105.771 25.1491 105.924 25.0865 106.05 24.9854C106.68 24.2454 107.33 23.5354 108 22.7754ZM112.42 23.6654C112.85 24.1354 113.19 24.5454 113.58 24.9054C113.665 24.9768 113.765 25.0267 113.873 25.0511C113.981 25.0754 114.093 25.0735 114.2 25.0454C115.53 24.3554 116.72 24.3554 117.67 25.6554C118.303 25.1751 118.72 24.4629 118.829 23.6754C118.938 22.8879 118.729 22.0895 118.25 21.4554C118.082 21.2379 117.888 21.0429 117.67 20.8754C116.75 22.3154 116.38 22.3954 114.45 21.4554L112.42 23.6654ZM107.7 27.6654L106.28 26.0854C105.792 26.5354 105.178 26.8262 104.521 26.9191C103.864 27.0119 103.194 26.9026 102.6 26.6054V27.5454C102.6 29.5454 104.07 30.3654 105.77 29.3354C106.473 28.8239 107.141 28.266 107.77 27.6654H107.7ZM110 3.96543C109.139 4.88177 108.618 6.06601 108.525 7.32015C108.432 8.57428 108.773 9.82227 109.49 10.8554C111.52 8.74543 111.78 5.47543 110 3.96543ZM110 42.5454C110.98 41.7332 111.619 40.5827 111.792 39.3216C111.964 38.0605 111.656 36.7807 110.93 35.7354C110.005 36.5838 109.406 37.7289 109.236 38.9726C109.066 40.2162 109.336 41.4801 110 42.5454ZM117.47 27.0854C116.924 27.0359 116.382 26.9457 115.85 26.8154C115.348 26.6201 114.86 26.3895 114.39 26.1254C114.02 26.6054 113.64 27.0754 113.29 27.5754C113.239 27.6508 113.206 27.737 113.194 27.8272C113.182 27.9174 113.191 28.0092 113.22 28.0954C113.559 28.5628 114.014 28.9339 114.54 29.1723C115.066 29.4108 115.645 29.5083 116.22 29.4554C116.94 29.2854 117.46 28.4554 117.53 27.2454L117.47 27.0854ZM102.7 19.5054C103.246 19.2311 103.867 19.1442 104.467 19.2581C105.067 19.372 105.613 19.6803 106.02 20.1354L107.41 18.2354C107.001 17.7457 106.455 17.389 105.842 17.2109C105.23 17.0328 104.578 17.0413 103.97 17.2354C103.537 17.4204 103.178 17.7434 102.948 18.1541C102.718 18.5647 102.631 19.0399 102.7 19.5054ZM114.15 20.2654C115.15 19.4154 116.21 19.7554 117.23 19.7954C117.333 19.3108 117.267 18.8055 117.044 18.3634C116.82 17.9214 116.452 17.5692 116 17.3654C115.399 17.2497 114.776 17.3163 114.213 17.5569C113.65 17.7975 113.172 18.2009 112.84 18.7154L114.15 20.2654ZM110.25 30.3754C110.84 29.4654 111.37 28.6554 111.87 27.8454C111.905 27.7737 111.922 27.6951 111.922 27.6154C111.922 27.5358 111.905 27.4572 111.87 27.3854C111.49 26.8854 111.07 26.3854 110.62 25.8954C110.02 26.5954 109.46 27.2154 108.95 27.8954C108.906 27.9857 108.883 28.0849 108.883 28.1854C108.883 28.2859 108.906 28.3851 108.95 28.4754C109.31 29.0854 109.74 29.6554 110.25 30.3754ZM108.39 18.7054L109.86 20.3154C110.44 19.5954 110.97 18.9554 111.47 18.3154C111.51 18.2345 111.53 18.1456 111.53 18.0554C111.53 17.9653 111.51 17.8763 111.47 17.7954C111.1 17.2254 110.69 16.6954 110.23 16.0754L108.39 18.7054ZM112.39 18.9554L110.39 21.2554L111.57 22.6154L113.84 20.5454L112.39 18.9554ZM108.73 32.7954C108.492 32.4734 108.179 32.2141 107.818 32.0399C107.458 31.8657 107.06 31.7818 106.66 31.7954C106.269 31.8503 105.914 32.0531 105.669 32.362C105.423 32.6709 105.305 33.0623 105.34 33.4554C105.371 33.5951 105.429 33.7272 105.511 33.8443C105.593 33.9613 105.698 34.0608 105.819 34.1371C105.94 34.2134 106.074 34.2649 106.215 34.2886C106.356 34.3124 106.501 34.3079 106.64 34.2754H106.76C107.173 34.1794 107.563 34.0016 107.907 33.7526C108.25 33.5036 108.54 33.1883 108.76 32.8254L108.73 32.7954ZM108.06 13.2054C107.62 12.8754 107.31 12.6154 106.98 12.4054C106.724 12.2354 106.416 12.1631 106.111 12.2016C105.806 12.2402 105.525 12.3871 105.32 12.6154C105.079 12.804 104.908 13.069 104.838 13.3671C104.767 13.6651 104.799 13.9784 104.93 14.2554C105.21 14.9654 105.73 15.1854 106.37 14.7354C106.982 14.2633 107.563 13.7523 108.11 13.2054H108.06ZM108.56 23.6154L106.65 25.7454L108.08 27.1654L109.87 25.0854L108.56 23.6154ZM111.68 13.6854V13.9554C112.36 14.2444 113.067 14.4654 113.79 14.6154C113.983 14.59 114.167 14.5161 114.325 14.4008C114.482 14.2854 114.608 14.1322 114.69 13.9554C114.747 13.4236 114.643 12.8869 114.39 12.4154C114.31 12.2654 113.6 12.2554 113.32 12.4154C112.762 12.8023 112.231 13.2266 111.73 13.6854H111.68ZM108.08 18.9254L106.58 20.6154L108.13 22.4954L109.54 20.6454L108.08 18.9254ZM112.26 27.2254L113.73 25.4054L112.13 23.9654L110.73 25.6154L112.26 27.2254ZM112.51 33.2254C112.738 33.4616 112.993 33.6698 113.27 33.8454C113.66 34.0054 114.27 34.3154 114.46 34.1554C114.867 33.8395 115.142 33.3831 115.23 32.8754C115.27 32.7806 115.29 32.6786 115.288 32.5757C115.287 32.4729 115.264 32.3714 115.222 32.2777C115.18 32.1839 115.119 32.0998 115.043 32.0306C114.967 31.9614 114.877 31.9086 114.78 31.8754C114.67 31.8363 114.552 31.8231 114.436 31.837C114.319 31.8509 114.208 31.8914 114.11 31.9554C113.551 32.3051 113.031 32.7141 112.56 33.1754L112.51 33.2254ZM110 24.7054C111.86 22.5754 111.69 23.3054 110.36 21.7054C110.293 21.7014 110.227 21.6807 110.17 21.6454L108.88 23.2354L110 24.7054ZM111.68 32.9354L110.76 31.7254C109.45 33.0954 109.45 33.3154 110.69 34.2054L111.68 32.9354ZM109.81 14.6754C110.91 13.4154 111.01 13.4954 109.81 12.4854C108.81 13.5554 108.81 13.5554 109.81 14.6754ZM103 20.4954C103.125 20.6665 103.282 20.8111 103.463 20.9209C103.644 21.0307 103.845 21.1035 104.054 21.1352C104.263 21.1668 104.477 21.1566 104.682 21.1051C104.887 21.0537 105.08 20.962 105.25 20.8354C105.378 20.7376 105.492 20.6233 105.59 20.4954C104.84 19.7254 104 19.7154 103 20.4954ZM114.89 25.7954C115.256 26.017 115.668 26.1521 116.095 26.1902C116.521 26.2283 116.95 26.1685 117.35 26.0154C116.74 24.9554 115.92 24.8854 114.89 25.7954ZM117.2 20.3854C116.822 20.2356 116.403 20.2237 116.018 20.3517C115.632 20.4797 115.303 20.7394 115.09 21.0854C116.26 21.6554 117.06 21.3854 117.2 20.3854ZM103.07 26.2854C103.468 26.4901 103.929 26.5348 104.358 26.4102C104.788 26.2856 105.153 26.0012 105.38 25.6154C105.186 25.5071 104.973 25.438 104.753 25.412C104.532 25.386 104.309 25.4037 104.095 25.4641C103.882 25.5244 103.682 25.6263 103.508 25.7638C103.334 25.9013 103.188 26.0717 103.08 26.2654L103.07 26.2854ZM109.67 2.42543H109.91C110.133 2.075 110.327 1.70714 110.49 1.32543C110.524 1.20126 110.533 1.07122 110.514 0.943745C110.495 0.816267 110.449 0.694192 110.38 0.585432C110.297 0.521909 110.199 0.481116 110.096 0.467085C109.992 0.453055 109.887 0.466272 109.79 0.505432C109.59 0.67437 109.464 0.914907 109.44 1.17543C109.477 1.59845 109.554 2.01699 109.67 2.42543ZM110.37 44.2454H110.13C109.912 44.5886 109.756 44.9678 109.67 45.3654C109.67 45.6154 109.98 45.8954 110.15 46.1554C110.33 45.9154 110.66 45.6854 110.66 45.4354C110.629 45.0256 110.531 44.6236 110.37 44.2454Z" fill="#F2F2F2"/>
</svg>
