<svg width="14" height="18" viewBox="0 0 14 18" fill="none" xmlns="http://www.w3.org/2000/svg">
<path d="M-7.58705e-07 0.642857L-2.81002e-08 17.3571C-1.25573e-08 17.7127 0.284375 18 0.636364 18L13.3636 18C13.7156 18 14 17.7127 14 17.3571L14 0.642856C14 0.287275 13.7156 -5.99529e-07 13.3636 -5.84143e-07L0.636363 -2.78163e-08C0.284374 -1.24304e-08 -7.74248e-07 0.287275 -7.58705e-07 0.642857ZM2.20341 1.44643L12.5682 1.44643L12.5682 16.5536L2.20341 16.5536L1.77585 17.108L0.771591 16.3185L1.43381 15.4587L1.43381 2.53929L0.77159 1.67946L1.77585 0.889955L2.20341 1.44643ZM1.43182 2.53929L6.40341 9L1.43182 15.4607L0.769602 16.3205L1.77386 17.11L2.20142 16.5556L7.48324 9.69308C7.63501 9.49572 7.7174 9.25293 7.7174 9.00301C7.7174 8.7531 7.63501 8.5103 7.48324 8.31295L2.20341 1.44643L1.77585 0.891964L0.77159 1.68147L1.43182 2.53929Z" fill="white"/>
</svg>
