<?xml version="1.0" encoding="utf-8"?>
<!-- Generator: Adobe Illustrator 23.0.3, SVG Export Plug-In . SVG Version: 6.00 Build 0)  -->
<svg version="1.1" id="Layer_1" xmlns="http://www.w3.org/2000/svg" xmlns:xlink="http://www.w3.org/1999/xlink" x="0px" y="0px"
	 viewBox="0 0 18.8 46.7" style="enable-background:new 0 0 18.8 46.7;" xml:space="preserve">
<style type="text/css">
	.st0{fill:#FFFFFF;}
</style>
<title>Asset 2</title>
<g>
	<g id="Layer_1-2">
		<g id="LOGO">
			<g id="SYMBOL">
				<path class="st0" d="M8.9,8.7C8.6,8.3,8.5,7.7,8.7,7.1C8.9,6.6,9,6.1,9.2,5.4c0.4,0.4,0.5,1,0.3,1.6C9.2,7.6,9.1,8.1,8.9,8.7z"
					/>
				<path class="st0" d="M9.5,41c-0.8-1.1,0.3-2.2,0.2-3.4c0.5,0.4,0.6,1,0.4,1.5C9.9,39.8,9.7,40.4,9.5,41z"/>
				<path class="st0" d="M10.2,23.1c-0.4,0.2-0.6,0.5-0.8,0.5c-0.2-0.1-0.4-0.2-0.4-0.5c0.1-0.2,0.2-0.4,0.4-0.5
					C9.6,22.6,9.8,22.9,10.2,23.1z"/>
				<path class="st0" d="M10.2,13c0.5-0.4,1.1-0.9,1.7-1.3c0.7-0.5,1.7-0.4,2.3,0.3c0,0.1,0.1,0.1,0.1,0.2c0.6,0.9,0.5,2.1-0.3,2.9
					c-0.5,0.2-1,0.3-1.5,0.1c-0.6-0.2-1.2-0.5-1.8-0.9l-0.9,1.2l1.6,2.1l0.3-0.2c0.8-0.9,2.1-1.3,3.2-0.9c1.1,0.4,1.9,1.4,2,2.6
					c0,0.7,0.4,1.4,0.9,1.9c1.4,1.5,1.4,3.9-0.1,5.3l-0.2,0.2c-0.1,0.1-0.2,0.3-0.2,0.5v1c-0.3,2-1.8,2.8-3.6,1.8
					c-0.7-0.4-1.3-0.9-1.8-1.5c-0.5,0.8-1.1,1.7-1.6,2.6c-0.1,0.2,0,0.4,0.1,0.5c0.2,0.3,0.5,0.6,0.8,0.9c0.5-0.4,1-0.7,1.5-1
					c0.7-0.4,1.6-0.3,2.2,0.4c0.4,0.7,0.4,1.6,0,2.4c-0.4,0.5-1.1,0.7-1.6,0.5c-0.6-0.2-1.1-0.5-1.7-0.8c-0.3,0.4-0.6,0.8-0.9,1.2
					c-0.1,0.2-0.1,0.5,0,0.7c0.4,1.1,0.7,2.1,0.9,3.2c0.2,1.6-0.3,3.2-1.5,4.4c0.2,0.8,0.3,1.5,0.4,2.3c0.1,0.5-0.3,1-0.9,1.1
					c0,0,0,0,0,0H9.4c-0.5,0.1-1.1-0.2-1.2-0.8c0,0,0,0,0,0c0-0.1,0-0.1,0-0.2c0.1-1,0.2-2,0.4-2.9c-2-2.5-1.8-4.1,1-8.1l-1.2-1
					c-0.5,0.3-1,0.6-1.5,0.9c-0.6,0.2-1.2,0.2-1.8,0c-0.8-0.1-1.4-0.9-1.3-1.8c0-0.1,0.1-0.3,0.1-0.4c0.5-1.2,1.3-1.7,2.4-1.2
					c0.6,0.3,1.2,0.7,1.8,1.1c0.3-0.4,0.6-0.8,0.8-1.3c0.1-0.1,0.1-0.3,0-0.5c-0.5-0.7-1-1.3-1.5-2c-0.5,0.4-1,0.8-1.4,1.1
					c-0.9,0.6-2,0.8-3,0.5c-1.1-0.2-1.9-1.3-1.9-2.5c0-0.8-0.2-1.5-0.6-2.1c-0.8-1.3-0.8-3-0.1-4.4c0.4-0.8,0.6-1.7,0.5-2.6
					C1,17.2,2,16.1,3.3,16.1c0.3,0,0.5,0,0.8,0.1c0.8,0.3,1.6,0.7,2.3,1.1c0.2,0.1,0.3,0.3,0.4,0.5l2.1-2.9l-1-1.1
					c-0.5,0.4-0.9,0.8-1.3,1.1c-0.8,0.7-1.9,0.7-2.7,0c-0.6-0.9-0.6-2.2,0.2-3c0.4-0.4,1.1-0.6,1.6-0.3c0.6,0.3,1.1,0.6,1.7,0.9
					c1-0.9,1-0.9,0.5-2.1c-1-2.5-1.1-4.9,0.4-7.2C8.3,3,8.3,2.7,8.3,2.5C8.2,2,8.1,1.6,8.1,1.1C8,0.5,8.4,0.1,9,0c0,0,0,0,0,0
					c0.1,0,0.2,0,0.3,0c0.5-0.1,1,0.3,1.1,0.9c0,0.1,0,0.2,0,0.4C10.3,1.9,10,2.4,9.9,3c-0.1,0.2-0.1,0.5,0,0.7
					c1.3,1.6,1.5,3.7,0.7,5.5c-0.2,0.6-0.5,1.3-0.9,1.8c-0.4,0.4-0.4,1,0,1.3c0,0,0,0,0,0c0.1,0.1,0.1,0.1,0.2,0.1
					C10,12.7,10.1,12.8,10.2,13z M7.2,22.7c-0.5-0.6-1-1.1-1.5-1.6C5.6,21,5.4,21,5.2,21c-1.1,0.6-2.4,0.6-3.4-0.1
					c-1.3,1.4-1.4,3.5-0.3,5c0.9-1.1,1.9-1.7,3.3-0.8c0.2,0,0.3-0.1,0.4-0.2C5.9,24.2,6.5,23.5,7.2,22.7L7.2,22.7z M11.6,23.6
					c0.4,0.5,0.8,0.9,1.2,1.2c0.2,0.1,0.4,0.2,0.6,0.1c1.3-0.7,2.5-0.7,3.5,0.6c1.3-1,1.6-2.9,0.6-4.2c-0.2-0.2-0.4-0.4-0.6-0.6
					c-0.9,1.4-1.3,1.5-3.2,0.6L11.6,23.6z M6.9,27.6L5.5,26c-1,0.9-2.5,1.1-3.7,0.5v0.9c0,2,1.5,2.8,3.2,1.8
					C5.7,28.7,6.3,28.2,6.9,27.6L6.9,27.6z M9.2,3.9c-1.8,1.9-2,4.8-0.5,6.9C10.7,8.7,11,5.4,9.2,3.9L9.2,3.9z M9.2,42.5
					c2-1.7,2.4-4.6,0.9-6.8C8.2,37.4,7.8,40.3,9.2,42.5L9.2,42.5z M16.6,27c-0.6,0-1.1-0.1-1.6-0.2c-0.5-0.2-1-0.4-1.5-0.7
					c-0.4,0.5-0.8,1-1.1,1.5c-0.1,0.2-0.1,0.3-0.1,0.5c0.7,1,1.8,1.5,3,1.4c0.7-0.2,1.2-1,1.3-2.2L16.6,27z M1.9,19.5
					c1.1-0.6,2.5-0.3,3.3,0.6l1.4-1.9c-0.8-1-2.2-1.4-3.4-1C2.3,17.6,1.7,18.5,1.9,19.5z M13.3,20.2c1-0.9,2.1-0.5,3.1-0.5
					c0.2-1-0.3-2-1.2-2.4c-1.2-0.2-2.5,0.3-3.2,1.3L13.3,20.2z M9.4,30.3c0.6-0.9,1.1-1.7,1.6-2.5c0.1-0.1,0.1-0.3,0-0.5
					c-0.4-0.5-0.8-1-1.3-1.5c-0.6,0.7-1.2,1.3-1.7,2C8,28,8,28.2,8.1,28.4C8.5,29,8.9,29.6,9.4,30.3z M7.6,18.6L9,20.3
					c0.6-0.7,1.1-1.4,1.6-2c0.1-0.2,0.1-0.4,0-0.5c-0.4-0.6-0.8-1.1-1.2-1.7L7.6,18.6z M11.6,18.9l-2,2.3l1.2,1.4l2.3-2.1L11.6,18.9
					z M7.9,32.7c-0.5-0.6-1.3-1-2.1-1c-0.8,0.1-1.4,0.8-1.3,1.7c0.1,0.6,0.7,1,1.3,0.8c0,0,0,0,0,0h0.1C6.8,34,7.5,33.5,7.9,32.7
					L7.9,32.7z M7.2,13.1c-0.4-0.3-0.8-0.6-1.1-0.8c-0.5-0.3-1.2-0.3-1.7,0.2c-0.5,0.4-0.7,1.1-0.4,1.6c0.3,0.7,0.8,0.9,1.4,0.5
					C6.2,14.2,6.7,13.7,7.2,13.1L7.2,13.1z M7.7,23.6l-1.9,2.1l1.4,1.4L9.1,25L7.7,23.6z M10.9,13.6v0.3c0.7,0.3,1.4,0.5,2.1,0.7
					c0.4-0.1,0.7-0.3,0.9-0.7c0.1-0.5-0.1-1.1-0.3-1.5c-0.1-0.1-0.8-0.2-1.1,0C11.9,12.7,11.4,13.2,10.9,13.6L10.9,13.6z M7.3,18.9
					l-1.5,1.7l1.5,1.9l1.4-1.9L7.3,18.9z M11.4,27.2l1.5-1.8l-1.6-1.4l-1.4,1.6L11.4,27.2z M11.7,33.2c0.2,0.2,0.5,0.5,0.8,0.6
					c0.4,0.2,1,0.5,1.2,0.3c0.4-0.3,0.7-0.8,0.8-1.3c0.1-0.4-0.1-0.8-0.5-1c-0.2-0.1-0.5-0.1-0.7,0.1C12.7,32.3,12.2,32.7,11.7,33.2
					L11.7,33.2z M9.2,24.6c1.9-2.1,1.7-1.4,0.4-3c-0.1,0-0.1,0-0.2-0.1l-1.3,1.6L9.2,24.6z M10.9,32.9l-0.9-1.2
					c-1.3,1.3-1.3,1.6-0.1,2.5L10.9,32.9z M9,14.6c1.1-1.3,1.2-1.2,0-2.2C8,13.5,8,13.5,9,14.6z M2.2,20.4c0.5,0.7,1.5,0.9,2.2,0.4
					c0,0,0,0,0,0c0.1-0.1,0.2-0.2,0.3-0.3C4,19.7,3.2,19.7,2.2,20.4z M14.1,25.7c0.7,0.4,1.6,0.5,2.5,0.2
					C15.9,24.9,15.1,24.8,14.1,25.7z M16.4,20.3c-0.8-0.3-1.7,0-2.1,0.7C15.4,21.6,16.2,21.3,16.4,20.3z M2.3,26.2
					c0.8,0.4,1.8,0.1,2.3-0.7C3.7,25.1,2.7,25.4,2.3,26.2L2.3,26.2z M8.9,2.4h0.2C9.3,2,9.5,1.7,9.7,1.3c0.1-0.3,0-0.5-0.1-0.7
					C9.4,0.4,9.2,0.4,9,0.4C8.8,0.6,8.7,0.9,8.6,1.1C8.7,1.5,8.7,2,8.9,2.4z M9.6,44.2H9.3c-0.2,0.3-0.4,0.7-0.5,1.1
					c0,0.3,0.3,0.5,0.5,0.8c0.2-0.2,0.5-0.5,0.5-0.7C9.8,45,9.7,44.6,9.6,44.2z"/>
			</g>
		</g>
	</g>
</g>
</svg>
