<svg width="1720" height="404" viewBox="0 0 1720 404" fill="none" xmlns="http://www.w3.org/2000/svg">
<path d="M1139.12 201.47V260.514C1138.82 262.147 1138.85 263.827 1139.23 265.445C1139.61 267.063 1140.32 268.585 1141.32 269.911C1142.32 271.238 1143.59 272.341 1145.04 273.149C1146.5 273.957 1148.1 274.453 1149.76 274.605C1153.99 275.643 1158.4 276.075 1162.9 276.766V283.855H1087.17V275.21C1091.76 274.779 1096.32 274.087 1100.83 273.136C1108.69 271.234 1110.42 268.813 1110.42 260.687V129.027C1110.42 117.011 1106.71 112.602 1094.78 110.268C1092.44 109.836 1090.11 109.576 1087.17 109.144V101.018C1088.86 100.76 1090.56 100.587 1092.27 100.499H1177.16C1183.95 100.59 1190.7 101.608 1197.22 103.525C1205.81 105.282 1213.57 109.875 1219.25 116.569C1224.92 123.263 1228.18 131.669 1228.51 140.438C1229.9 150.124 1228.12 159.998 1223.45 168.595C1218.78 177.192 1211.46 184.052 1202.58 188.157C1196.93 190.483 1191.15 192.503 1185.29 194.209L1217.19 237.433L1227.56 250.313C1242.08 270.024 1242.08 270.023 1265.94 274.605V284.028H1222.72C1220.89 284.142 1219.07 283.75 1217.46 282.896C1215.84 282.042 1214.49 280.758 1213.55 279.187C1197.13 255.587 1180.36 232.246 1164.19 208.473C1162.86 205.886 1160.75 203.783 1158.16 202.464C1155.57 201.145 1152.63 200.676 1149.76 201.125C1146.22 201.463 1142.67 201.578 1139.12 201.47ZM1139.12 190.319H1162.38C1168.12 190.234 1173.72 188.577 1178.58 185.529C1183.45 182.48 1187.38 178.157 1189.95 173.029C1193.48 166.245 1196.04 158.999 1197.56 151.504C1199.08 144.575 1198.25 137.336 1195.2 130.933C1192.15 124.529 1187.05 119.326 1180.7 116.146C1167.56 108.712 1153.39 110.009 1139.12 110.7V190.319Z" fill="#F2F2F2"/>
<path d="M1278.56 214.178C1279.86 206.311 1280.55 197.753 1282.71 189.541C1285.59 175.502 1293.35 162.94 1304.63 154.09C1315.9 145.241 1329.94 140.679 1344.26 141.216C1358.99 141.552 1373.2 146.68 1384.74 155.822C1396.29 164.964 1404.53 177.622 1408.24 191.875C1411.22 204.087 1411.43 216.81 1408.88 229.117C1406.32 241.425 1401.05 253.007 1393.45 263.021C1378.32 284.374 1356.37 289.993 1331.64 285.238C1319.55 283.512 1308.29 278.066 1299.43 269.655C1290.57 261.244 1284.55 250.285 1282.19 238.297C1280.55 230.329 1279.34 222.278 1278.56 214.178ZM1389.91 214.178C1387.94 201.751 1385.23 189.453 1381.78 177.351C1379.46 169.354 1374.57 162.343 1367.87 157.405C1361.17 152.467 1353.02 149.876 1344.7 150.034C1336.51 150.167 1328.58 152.903 1322.05 157.846C1315.52 162.788 1310.74 169.681 1308.39 177.524C1299.28 202.346 1300.12 229.725 1310.72 253.944C1313.21 261.193 1317.97 267.446 1324.29 271.776C1330.61 276.105 1338.16 278.28 1345.82 277.977C1353.55 278.279 1361.15 275.982 1367.42 271.453C1373.69 266.924 1378.26 260.425 1380.4 252.993C1384.31 240.335 1387.48 227.462 1389.91 214.438V214.178Z" fill="#F2F2F2"/>
<path d="M1701.38 282.818H1650.12C1648.73 282.818 1647.35 280.916 1646.05 279.965C1647.24 278.789 1648.58 277.772 1650.03 276.939C1652.02 276.161 1654.35 276.248 1656.43 275.643C1658.43 275.342 1660.24 274.271 1661.47 272.656C1662.7 271.041 1663.24 269.011 1663 266.998C1662.89 266.189 1662.65 265.402 1662.3 264.664C1659.25 256.019 1655.97 247.374 1652.45 238.729C1651.89 237.789 1651.13 236.989 1650.21 236.39C1649.3 235.791 1648.26 235.408 1647.18 235.271H1607.06C1605.82 235.492 1604.64 236.008 1603.63 236.774C1602.63 237.541 1601.82 238.537 1601.27 239.68C1598.51 246.337 1596.43 253.339 1594.18 260.168C1591.24 268.813 1594.18 273.827 1603.26 275.902C1605.21 276.085 1607.15 276.403 1609.05 276.853C1610.52 277.69 1611.86 278.739 1613.03 279.965C1611.65 280.916 1610.35 282.731 1608.97 282.818H1565.31C1563.93 282.818 1562.63 281.002 1561.25 279.965C1562.37 278.928 1563.32 277.026 1564.53 276.939C1569.07 276.529 1573.35 274.668 1576.75 271.631C1580.14 268.595 1582.47 264.545 1583.38 260.082C1597.47 222.737 1612.08 185.65 1626.6 148.391C1627.73 145.539 1628.07 142.167 1632.83 142.167C1637.58 142.167 1637.93 145.625 1639.05 148.478L1683.92 262.33C1684.97 265.803 1686.97 268.916 1689.69 271.326C1692.4 273.736 1695.73 275.35 1699.3 275.988C1700.95 275.988 1702.16 278.668 1703.54 280.138L1701.38 282.818ZM1606.29 225.503H1647.78C1640.78 208.213 1634.04 191.961 1626.6 173.634L1606.29 225.503Z" fill="#F2F2F2"/>
<path d="M1481.28 151.071C1463.99 152.541 1462.44 156.345 1471.17 171.559C1479.04 184.959 1486.9 198.445 1495.37 213.054C1497.62 209.424 1499.26 206.83 1500.91 204.41L1522.69 168.361C1529.61 156.777 1527.36 152.541 1514.05 152.109H1508.6C1510.42 149.515 1511.45 146.317 1512.66 146.23H1554.07L1556.06 147.7C1554.59 149.602 1553.47 152.454 1551.48 153.232C1544.17 156.077 1538.06 161.36 1534.19 168.188C1523.82 185.478 1513.53 202.335 1503.59 220.057C1501.71 223.722 1500.73 227.782 1500.73 231.9V260.86C1500.41 262.826 1500.49 264.835 1500.95 266.772C1501.41 268.708 1502.26 270.534 1503.43 272.142C1504.61 273.75 1506.09 275.11 1507.79 276.141C1509.49 277.172 1511.39 277.855 1513.36 278.15H1514.91C1516.83 279.005 1518.6 280.141 1520.19 281.521C1518.28 282.386 1516.47 284.028 1514.57 284.028H1462.7C1460.97 284.028 1459.33 282.472 1457.6 281.694C1459.01 280.479 1460.58 279.461 1462.26 278.668C1465.55 277.544 1469.18 277.199 1472.38 275.902C1474.58 275.136 1476.47 273.676 1477.76 271.742C1479.05 269.808 1479.68 267.506 1479.55 265.182C1479.55 254.204 1479.55 243.138 1478.86 232.246C1478 227.06 1476.12 222.095 1473.33 217.636C1463.39 199.569 1453.53 182.279 1443.68 164.038C1442.22 161.18 1440.09 158.718 1437.47 156.866C1434.85 155.013 1431.82 153.826 1428.64 153.405C1425.01 152.887 1422.67 151.763 1424.83 146.576H1477.57C1479.38 146.576 1481.11 148.737 1482.84 149.947L1481.28 151.071Z" fill="#F2F2F2"/>
<path d="M0 104.476H88.8684C94.3417 104.62 99.7742 105.463 105.034 106.983C138.489 115.628 148.258 140.438 139.095 169.571C136.178 178.146 131.11 185.828 124.374 191.883C117.638 197.937 109.461 202.161 100.625 204.15C93.4133 205.979 86.0191 206.994 78.5811 207.176C70.9737 207.608 63.3663 207.176 54.8079 207.176V224.033C54.8079 237.26 55.3266 250.4 54.8079 263.54C54.4607 266.206 55.1709 268.902 56.7866 271.051C58.4024 273.2 60.7951 274.631 63.4527 275.038C68.8989 276.594 74.518 277.199 80.7423 278.323V287.572H2.93923V278.928C7.00227 278.323 11.0653 277.977 15.0419 277.112C18.1153 276.89 20.9787 275.47 23.0158 273.158C25.0529 270.846 26.101 267.827 25.9343 264.75C25.9759 264.03 25.9759 263.309 25.9343 262.589V131.621C26.3767 127.391 25.1522 123.155 22.5209 119.813C19.8897 116.472 16.0592 114.288 11.8434 113.726L0 111.91V104.476ZM54.8944 193.344C80.8287 195.851 94.0552 194.382 104.083 178.13C108.51 170.262 110.727 161.344 110.498 152.319C110.27 143.294 107.605 134.5 102.786 126.866C93.4501 115.109 72.5297 110.354 54.8944 115.887V193.344Z" fill="#F2F2F2"/>
<path d="M812.61 285.325H697.202V279.706C716.826 275.124 716.739 275.124 716.653 255.155V172.77C716.653 160.84 713.454 157.209 701.351 154.961L697.375 154.011V148.219H802.495V179.599C797.568 181.328 794.888 179.599 792.727 175.017C790.404 169.848 787.218 165.112 783.304 161.013C780.218 157.941 776.209 155.967 771.893 155.394C760.309 154.616 748.725 155.394 736.536 155.394V209.164C743.993 209.596 751.469 209.596 758.926 209.164C763.013 208.657 766.815 206.799 769.727 203.887C772.64 200.974 774.497 197.173 775.005 193.085C775.524 191.097 777.598 189.541 778.982 187.725C779.932 189.714 781.748 191.788 781.748 193.777V237C781.838 237.718 781.838 238.444 781.748 239.162C777.944 240.977 776.215 239.767 775.178 235.531C771.893 221.613 767.311 218.241 753.22 218.241H736.709V264.491C736.709 271.839 740.166 276.68 747.342 277.026C758.461 278.236 769.678 278.236 780.797 277.026C787.212 276.061 793.124 272.989 797.601 268.293C802.077 263.598 804.864 257.546 805.521 251.091C806.04 248.844 806.386 246.423 807.164 241.755C809.671 244.089 812.61 245.472 812.61 246.942V285.325Z" fill="#F2F2F2"/>
<path d="M172.378 286.967H121.892L120.422 286.016C121.806 284.547 123.016 281.953 124.658 281.78C128.909 281.249 132.9 279.445 136.108 276.607C139.316 273.769 141.593 270.028 142.639 265.874C156.73 228.529 171.34 191.442 185.863 154.183C187.074 151.244 187.16 147.354 192.347 147.354C197.534 147.354 197.62 151.158 198.831 154.183C213.757 191.99 228.655 229.739 243.524 267.43C244.62 270.933 246.689 274.053 249.49 276.425C252.291 278.798 255.708 280.325 259.344 280.83C260.987 280.83 262.197 283.596 263.58 285.065L262.37 287.14H210.501C209.118 287.14 207.821 285.325 206.524 284.287C207.48 283.13 208.619 282.137 209.896 281.348C211.832 280.898 213.796 280.581 215.774 280.397C217.135 280.221 218.434 279.723 219.563 278.945C220.693 278.167 221.622 277.131 222.272 275.923C222.923 274.715 223.276 273.37 223.304 271.998C223.331 270.627 223.032 269.268 222.431 268.035C219.146 260.082 216.12 251.437 212.662 243.398C212.071 242.373 211.246 241.502 210.254 240.856C209.263 240.21 208.133 239.807 206.957 239.68H166.758C165.619 239.886 164.543 240.352 163.613 241.042C162.684 241.731 161.926 242.626 161.399 243.657C158.632 250.4 156.558 257.316 154.31 264.232C151.198 273.395 154.31 278.323 163.56 280.311C165.52 280.408 167.463 280.727 169.352 281.262C170.964 282.356 172.394 283.698 173.588 285.238L172.378 286.967ZM187.765 180.031H186.123L166.672 229.48H208.167L187.765 180.031Z" fill="#F2F2F2"/>
<path d="M460.681 282.818C459.038 284.028 457.396 286.276 455.753 286.276H412.529C410.8 286.276 409.071 284.115 407.342 282.991L408.38 280.916L412.702 280.138C416.412 279.739 419.925 278.267 422.812 275.903C425.698 273.538 427.833 270.384 428.954 266.825C443.218 228.788 458.174 190.924 472.956 152.8C474.166 149.688 474.426 145.971 479.613 146.057C484.8 146.144 484.54 149.775 485.578 152.627C500.504 190.146 515.316 227.606 530.012 265.01C530.991 268.748 533.03 272.124 535.882 274.731C538.735 277.338 542.28 279.066 546.091 279.706C547.647 279.706 548.771 282.559 550.068 284.115L548.771 285.93H496.211C495.173 285.93 494.136 283.942 493.012 282.904C493.963 282.04 494.827 280.57 495.951 280.311C512.031 276.334 512.376 275.643 506.498 259.996C505.979 258.612 505.461 257.143 504.855 255.76C502.521 250.054 501.57 242.36 497.334 239.421C493.099 236.482 485.491 238.47 479.44 238.384H455.061C453.446 238.079 451.775 238.427 450.415 239.35C449.054 240.273 448.114 241.697 447.8 243.311C447.759 243.482 447.759 243.659 447.8 243.83C445.984 250.4 443.478 256.711 441.403 263.194C438.291 272.703 440.798 277.112 450.653 279.273C453.419 279.879 456.272 280.224 459.297 280.657L460.681 282.818ZM495.26 229.134C488.171 211.844 481.428 195.419 474.08 177.265L453.678 229.134H495.26Z" fill="#F2F2F2"/>
<path d="M542.114 148.391H595.625C597.095 148.391 598.478 150.812 599.948 152.109L598.738 153.924H593.032C584.819 154.356 580.929 159.457 584.387 166.718C593.032 182.884 602.541 198.618 612.31 215.734L628.216 189.8C632.366 182.884 636.861 175.968 640.751 168.88C646.025 159.716 643.69 155.394 633.23 154.789H627.265C625.796 150.985 625.709 148.391 630.464 148.391H667.291C668.76 148.391 671.181 150.12 671.267 151.158C671.217 152.022 670.943 152.858 670.474 153.585C670.004 154.313 669.354 154.906 668.587 155.307C660.526 158.433 653.885 164.397 649.915 172.078C640.319 188.071 630.55 203.977 621.387 220.143C619.203 224.503 617.965 229.276 617.756 234.148C617.151 243.484 617.756 252.993 617.756 262.416C617.477 264.428 617.602 266.475 618.123 268.439C618.643 270.402 619.55 272.242 620.789 273.851C622.028 275.46 623.575 276.807 625.34 277.812C627.105 278.817 629.053 279.461 631.069 279.706H631.674C633.732 280.565 635.631 281.763 637.293 283.25C635.254 284.382 633.029 285.143 630.723 285.498H580.065C578.249 285.498 576.348 283.855 574.532 282.991C576.021 281.771 577.721 280.834 579.546 280.224C593.724 278.063 595.366 274.865 596.836 260.514C598.556 239.647 593.03 218.825 581.189 201.557C573.754 190.232 568.135 177.697 561.651 165.767C560.204 162.783 558.027 160.213 555.322 158.294C552.617 156.374 549.472 155.169 546.177 154.789C541.768 154.616 540.04 153.146 542.114 148.391Z" fill="#F2F2F2"/>
<path d="M333.948 149.17C335.59 153.405 334.726 155.048 330.403 155.653C316.831 157.296 315.275 159.197 315.275 172.943V265.788C315.275 274 317.436 277.717 325.39 279.619C350.2 285.152 372.331 277.372 380.37 251.437C380.456 250.557 380.721 249.704 381.148 248.93C382.032 247.887 382.985 246.905 384.001 245.991C384.693 247.201 386.076 248.325 386.076 249.449V286.016C383.655 286.016 381.494 286.535 379.419 286.535H282.684C279.486 286.535 275.423 287.313 277.238 281.262L280.782 280.743C284.767 280.908 288.655 279.492 291.602 276.805C294.548 274.118 296.314 270.376 296.516 266.393C296.602 265.415 296.602 264.431 296.516 263.454V172.856C296.516 162.742 293.144 158.16 282.425 155.567C279.918 155.048 275.682 155.999 276.892 151.417C277.325 150.034 280.869 148.824 283.03 148.737C299.455 149.083 316.745 149.17 333.948 149.17Z" fill="#F2F2F2"/>
<path d="M948.506 76.0346C947.066 74.0771 946.178 71.7689 945.934 69.3511C945.691 66.9333 946.101 64.4945 947.122 62.2894C948.419 57.7076 949.457 53.0394 950.753 47.4203C952.516 49.2079 953.68 51.4995 954.083 53.9778C954.485 56.456 954.107 58.9981 953.001 61.252C951.445 65.8337 950.062 70.7612 948.506 76.0346Z" fill="#F2F2F2"/>
<path d="M953.606 355.175C946.777 345.493 956.113 336.502 954.989 326.128C956.96 327.59 958.37 329.683 958.984 332.059C959.598 334.434 959.378 336.949 958.361 339.182C956.718 344.542 955.249 349.728 953.606 355.175Z" fill="#F2F2F2"/>
<path d="M959.571 200.174C956.027 202.248 954.211 204.237 952.482 204.15C951.562 203.857 950.734 203.327 950.082 202.614C949.43 201.901 948.976 201.03 948.765 200.087C949.027 199.164 949.51 198.32 950.173 197.626C950.836 196.933 951.659 196.413 952.569 196.111C954.384 196.111 956.2 198.012 959.571 200.174Z" fill="#F2F2F2"/>
<path d="M959.571 113.121C964.304 109.221 969.269 105.613 974.44 102.315C975.87 101.149 977.518 100.28 979.288 99.7576C981.057 99.2349 982.913 99.0694 984.747 99.2705C986.581 99.4716 988.357 100.035 989.971 100.929C991.585 101.823 993.006 103.028 994.15 104.476C994.602 105.017 995.007 105.595 995.36 106.205C997.824 109.956 998.888 114.455 998.366 118.913C997.845 123.37 995.77 127.502 992.507 130.583C988.481 132.559 983.878 133.019 979.54 131.88C974.197 129.9 969.07 127.38 964.239 124.359L956.891 134.906L970.549 152.973L972.97 150.898C976.338 147.048 980.77 144.279 985.707 142.941C990.645 141.602 995.868 141.754 1000.72 143.377C1005.57 144.994 1009.81 148.038 1012.9 152.111C1015.98 156.184 1017.77 161.096 1018.01 166.2C1018.49 172.369 1021.15 178.164 1025.53 182.538C1031.45 188.764 1034.66 197.088 1034.45 205.68C1034.24 214.271 1030.63 222.428 1024.41 228.356L1022.76 229.825C1021.72 231.064 1021.11 232.614 1021.04 234.234V242.879C1018.7 260.168 1005.3 266.825 990.346 258.44C984.71 254.703 979.39 250.511 974.44 245.905C970.031 253.08 965.276 260.687 960.867 268.381C960.67 269.143 960.637 269.937 960.771 270.713C960.906 271.488 961.204 272.225 961.645 272.876C963.634 275.729 966.054 278.236 968.129 280.743C972.274 277.604 976.604 274.717 981.096 272.098C984.089 270.405 987.569 269.783 990.964 270.333C994.358 270.883 997.464 272.573 999.769 275.124C1001.56 278.273 1002.5 281.833 1002.5 285.454C1002.5 289.076 1001.56 292.636 999.769 295.785C998.212 297.963 995.958 299.544 993.38 300.268C990.802 300.991 988.054 300.812 985.591 299.762C980.601 297.684 975.75 295.287 971.068 292.586C968.316 295.738 965.802 299.09 963.547 302.614C962.861 304.514 962.861 306.593 963.547 308.493C966.676 317.577 969.245 326.844 971.241 336.243C972.259 343.233 971.573 350.366 969.24 357.035C966.907 363.703 962.996 369.708 957.842 374.539C959.45 381.01 960.72 387.56 961.645 394.163C961.94 396.432 961.323 398.725 959.929 400.54C958.536 402.355 956.479 403.543 954.211 403.845H953.001C950.754 404.276 948.428 403.8 946.533 402.52C944.637 401.24 943.326 399.26 942.886 397.015C942.801 396.413 942.801 395.802 942.886 395.2C943.406 386.701 944.446 378.243 945.998 369.871C928.709 347.827 930.438 334.6 954.643 299.675L944.183 290.598C940.103 293.621 935.66 296.119 930.956 298.033C925.871 299.668 920.445 299.937 915.223 298.811C913.496 298.518 911.844 297.887 910.362 296.955C908.879 296.022 907.596 294.806 906.584 293.377C905.572 291.948 904.852 290.333 904.465 288.624C904.079 286.916 904.033 285.149 904.33 283.423C904.574 282.232 904.951 281.072 905.454 279.965C909.517 269.418 917.038 265.442 926.634 269.505C932.04 272.318 937.266 275.465 942.281 278.928C944.529 275.383 947.122 271.752 949.37 267.776C949.67 267.141 949.826 266.447 949.826 265.744C949.826 265.042 949.67 264.348 949.37 263.713C945.22 257.921 940.725 252.215 936.489 246.423C931.994 249.968 927.844 253.426 924.127 256.105C920.419 258.755 916.147 260.508 911.648 261.228C907.148 261.948 902.542 261.615 898.193 260.255C893.352 259.284 889.025 256.598 886.007 252.691C882.989 248.783 881.484 243.918 881.768 238.989C882.026 232.439 880.309 225.964 876.84 220.402C873.394 214.703 871.5 208.201 871.349 201.542C871.197 194.884 872.792 188.302 875.976 182.452C879.279 175.462 880.878 167.789 880.644 160.062C880.481 157.419 880.849 154.771 881.727 152.273C882.605 149.776 883.976 147.48 885.757 145.521C887.538 143.563 889.695 141.981 892.098 140.87C894.501 139.76 897.103 139.143 899.749 139.055C901.966 138.967 904.183 139.23 906.319 139.833C913.265 142.24 919.864 145.554 925.942 149.688C927.326 150.466 928.277 152.282 929.833 154.011L947.987 129.2L939.342 119.259C935.279 122.716 931.648 126.088 927.758 129.114C924.576 132.005 920.43 133.607 916.131 133.607C911.831 133.607 907.686 132.005 904.503 129.114C901.806 125.231 900.515 120.543 900.845 115.827C901.175 111.11 903.107 106.648 906.319 103.179C908.045 101.272 910.346 99.9791 912.873 99.4956C915.399 99.0121 918.015 99.3644 920.323 100.499C925.337 102.661 930.005 105.513 934.847 108.02C943.491 100.154 943.491 100.24 938.91 90.0391C930.265 68.773 929.227 47.8526 942.713 27.7967C943.591 25.9337 943.775 23.8184 943.232 21.8318C942.713 17.6823 941.244 13.6193 941.157 9.55622C940.941 7.27517 941.638 5.0014 943.097 3.23454C944.556 1.46767 946.657 0.352264 948.938 0.133403C949.938 -0.0444675 950.963 -0.0444675 951.963 0.133403C953.093 0.0135907 954.235 0.11761 955.325 0.439513C956.414 0.761416 957.429 1.29489 958.313 2.00944C959.196 2.72398 959.929 3.60559 960.472 4.60385C961.014 5.60211 961.354 6.69746 961.473 7.82726C961.643 8.85759 961.643 9.90905 961.473 10.9394C960.694 16.0398 958.274 20.8809 956.977 25.9813C956.182 28.0097 956.182 30.2636 956.977 32.292C962.382 38.8808 965.831 46.8534 966.931 55.3041C968.031 63.7547 966.739 72.3446 963.201 80.0976C961.367 85.7274 958.717 91.0575 955.335 95.9176C954.585 96.6575 953.989 97.5391 953.582 98.5111C953.176 99.4831 952.966 100.526 952.966 101.58C952.966 102.634 953.176 103.677 953.582 104.649C953.989 105.621 954.585 106.502 955.335 107.242C955.8 107.793 956.356 108.26 956.977 108.625C958.063 109.985 958.937 111.5 959.571 113.121ZM933.636 196.889C929.141 191.875 924.992 187.379 921.015 183.23C920.344 182.759 919.583 182.432 918.78 182.268C917.977 182.105 917.148 182.108 916.347 182.279C911.894 184.831 906.818 186.093 901.689 185.925C896.559 185.757 891.577 184.165 887.3 181.328C881.859 187.084 878.624 194.576 878.165 202.483C877.707 210.39 880.054 218.206 884.793 224.552C892.314 214.61 901.218 209.942 912.975 217.55C914.367 217.408 915.687 216.868 916.779 215.994C922.225 209.596 927.844 203.459 933.636 196.889ZM971.846 204.583C975.563 208.646 978.503 212.19 981.874 215.302C982.605 215.919 983.474 216.35 984.406 216.561C985.339 216.772 986.309 216.755 987.234 216.512C998.731 210.547 1009.02 210.547 1017.23 221.786C1022.71 217.633 1026.31 211.477 1027.25 204.669C1028.19 197.861 1026.39 190.959 1022.25 185.478C1020.8 183.597 1019.11 181.911 1017.23 180.464C1009.28 192.912 1006.08 193.604 989.395 185.478L971.846 204.583ZM931.043 239.162L918.767 225.503C914.548 229.393 909.244 231.906 903.562 232.709C897.879 233.512 892.087 232.567 886.954 229.998V238.124C886.954 255.414 899.662 262.503 914.358 253.598C920.436 249.176 926.212 244.353 931.648 239.162H931.043ZM950.926 34.2803C943.48 42.2018 938.98 52.4394 938.177 63.2811C937.375 74.1228 940.319 84.9114 946.517 93.8428C964.066 75.6024 966.314 47.3339 950.926 34.2803ZM950.926 367.796C959.397 360.774 964.925 350.829 966.413 339.927C967.902 329.025 965.244 317.961 958.966 308.925C950.968 316.259 945.787 326.158 944.319 336.909C942.851 347.66 945.188 358.586 950.926 367.796ZM1015.5 234.148C1010.78 233.72 1006.1 232.94 1001.5 231.814C997.155 230.125 992.938 228.132 988.876 225.849C985.678 229.998 982.393 234.061 979.367 238.384C978.926 239.035 978.642 239.78 978.537 240.56C978.432 241.34 978.509 242.134 978.762 242.879C981.694 246.919 985.627 250.127 990.174 252.189C994.721 254.25 999.725 255.093 1004.7 254.636C1010.92 253.166 1015.42 245.991 1016.02 235.531L1015.5 234.148ZM887.819 168.62C892.537 166.249 897.904 165.498 903.092 166.482C908.279 167.466 912.998 170.132 916.52 174.066L928.536 157.641C925 153.408 920.282 150.324 914.985 148.785C909.688 147.245 904.053 147.319 898.798 148.997C895.057 150.595 891.951 153.388 889.965 156.938C887.979 160.488 887.224 164.596 887.819 168.62ZM986.802 175.19C995.447 167.842 1004.61 170.781 1013.43 171.127C1014.32 166.938 1013.75 162.569 1011.82 158.748C1009.88 154.926 1006.7 151.882 1002.79 150.12C997.597 149.119 992.218 149.696 987.35 151.776C982.482 153.855 978.347 157.343 975.477 161.791L986.802 175.19ZM953.087 262.589C958.187 254.722 962.769 247.72 967.092 240.718C967.39 240.097 967.546 239.418 967.546 238.729C967.546 238.041 967.39 237.361 967.092 236.741C963.807 232.419 960.176 228.096 956.286 223.86C951.099 229.912 946.258 235.271 941.849 241.15C941.467 241.931 941.269 242.788 941.269 243.657C941.269 244.526 941.467 245.383 941.849 246.164C944.961 251.437 948.678 256.365 953.087 262.589ZM937.008 161.704L949.716 175.622C954.73 169.398 959.311 163.866 963.634 158.333C963.977 157.633 964.156 156.865 964.156 156.085C964.156 155.306 963.977 154.537 963.634 153.838C960.435 148.91 956.891 144.328 952.914 138.969L937.008 161.704ZM971.587 163.866L954.297 183.749L964.498 195.506L984.122 177.611L971.587 163.866ZM939.947 283.509C937.889 280.726 935.184 278.484 932.067 276.978C928.949 275.472 925.512 274.747 922.052 274.865C918.674 275.339 915.606 277.092 913.483 279.762C911.359 282.433 910.342 285.816 910.641 289.215C910.906 290.422 911.409 291.565 912.119 292.576C912.829 293.588 913.734 294.448 914.779 295.108C915.824 295.767 916.99 296.212 918.209 296.418C919.428 296.623 920.676 296.584 921.879 296.304H922.917C926.489 295.473 929.859 293.936 932.828 291.784C935.798 289.631 938.306 286.906 940.206 283.769L939.947 283.509ZM934.155 114.158C930.351 111.305 927.671 109.058 924.819 107.242C922.607 105.773 919.94 105.147 917.306 105.481C914.671 105.814 912.244 107.083 910.468 109.058C908.381 110.688 906.91 112.979 906.298 115.555C905.685 118.132 905.967 120.84 907.097 123.235C909.517 129.373 914.013 131.275 919.545 127.385C924.838 123.303 929.863 118.885 934.587 114.158H934.155ZM938.477 204.15L921.966 222.564L934.328 234.839L949.802 216.858L938.477 204.15ZM965.449 118.308V120.642C971.327 123.139 977.436 125.05 983.69 126.347C985.362 126.127 986.951 125.489 988.311 124.492C989.671 123.494 990.757 122.17 991.47 120.642C991.964 116.044 991.06 111.405 988.876 107.329C988.185 106.032 982.047 105.946 979.627 107.329C974.802 110.673 970.209 114.341 965.881 118.308H965.449ZM934.328 163.606L921.361 178.216L934.76 194.468L946.949 178.475L934.328 163.606ZM970.463 235.358L983.171 219.624L969.339 207.176L957.237 221.44L970.463 235.358ZM972.624 287.227C974.593 289.268 976.799 291.068 979.194 292.586C982.566 293.97 987.839 296.649 989.482 295.266C993 292.535 995.374 288.589 996.138 284.201C996.482 283.381 996.653 282.499 996.642 281.61C996.63 280.721 996.436 279.844 996.071 279.033C995.706 278.223 995.179 277.496 994.521 276.897C993.863 276.299 993.09 275.843 992.248 275.556C991.294 275.218 990.276 275.104 989.271 275.224C988.266 275.344 987.303 275.694 986.456 276.248C981.622 279.27 977.13 282.806 973.056 286.794L972.624 287.227ZM950.926 213.573C967.005 195.16 965.536 201.47 954.038 187.639C953.456 187.604 952.892 187.425 952.395 187.12L941.244 200.865L950.926 213.573ZM965.449 284.72L957.496 274.259C946.171 286.103 946.171 288.005 956.891 295.699L965.449 284.72ZM949.283 126.866C958.793 115.973 959.657 116.665 949.283 107.934C940.639 117.184 940.639 117.184 949.283 126.866ZM890.412 177.179C891.49 178.657 892.85 179.907 894.414 180.857C895.978 181.806 897.715 182.436 899.524 182.709C901.333 182.982 903.179 182.894 904.953 182.449C906.728 182.004 908.397 181.212 909.863 180.118C910.969 179.272 911.957 178.284 912.802 177.179C906.319 170.522 899.057 170.436 890.412 177.179ZM993.199 222.996C996.365 224.912 999.926 226.079 1003.61 226.409C1007.3 226.738 1011.01 226.221 1014.47 224.898C1009.19 215.734 1002.1 215.129 993.199 222.996ZM1013.17 176.228C1009.9 174.932 1006.28 174.829 1002.95 175.936C999.612 177.042 996.773 179.288 994.928 182.279C1005.04 187.207 1011.96 184.872 1013.17 176.228ZM891.018 227.232C894.456 229.001 898.441 229.387 902.155 228.31C905.869 227.233 909.029 224.775 910.987 221.44C909.312 220.503 907.47 219.906 905.564 219.681C903.659 219.457 901.728 219.61 899.882 220.131C898.035 220.653 896.31 221.533 894.804 222.722C893.298 223.911 892.041 225.384 891.104 227.059L891.018 227.232ZM948.073 20.9673H950.148C952.073 17.9379 953.75 14.7578 955.162 11.4581C955.46 10.3846 955.53 9.2605 955.366 8.15847C955.202 7.05645 954.809 6.00114 954.211 5.06093C953.494 4.51179 952.647 4.15914 951.753 4.03785C950.858 3.91656 949.947 4.03082 949.11 4.36935C947.383 5.82978 946.297 7.90917 946.085 10.1614C946.404 13.8182 947.069 17.4365 948.073 20.9673ZM954.124 382.492H952.05C950.162 385.459 948.816 388.737 948.073 392.174C948.073 394.335 950.753 396.756 952.223 399.004C953.779 396.929 956.631 394.941 956.631 392.779C956.362 389.237 955.515 385.762 954.124 382.492Z" fill="#F2F2F2"/>
</svg>
