<svg xmlns="http://www.w3.org/2000/svg" id="PalayeLogo" viewBox="0 0 1920 392.58"><g><g><g id="LOGO"><g id="ROYALE"><path d="M1106.92,195.78v57.37a11.61,11.61,0,0,0,9.25,13.54,9.85,9.85,0,0,0,1.09.15c4.11,1,8.4,1.43,12.76,2.1v6.89h-73.58v-8.4a116.44,116.44,0,0,0,13.27-2c7.64-1.84,9.32-4.2,9.32-12.09V125.38c0-11.68-3.61-16-15.2-18.23-2.27-.42-4.54-.67-7.39-1.09v-7.9a48.24,48.24,0,0,1,5-.5h82.5a72.59,72.59,0,0,1,19.48,2.94,38,38,0,0,1,30.41,35.87,44.18,44.18,0,0,1-25.2,46.37,166.25,166.25,0,0,1-16.8,5.88l31,42,10.08,12.52c14.11,19.15,14.11,19.15,37.3,23.6V276h-42a9.68,9.68,0,0,1-8.91-4.7c-16-22.94-32.26-45.62-48-68.72a13.43,13.43,0,0,0-14-7.14A83,83,0,0,1,1106.92,195.78Zm0-10.84h22.6a30.49,30.49,0,0,0,26.8-16.8,79.36,79.36,0,0,0,7.39-20.92,31,31,0,0,0-16.38-34.36c-12.77-7.22-26.55-6-40.41-5.29Z" fill="#F2F2F2"/><path d="M1242.42,208.12c1.26-7.64,1.93-16,4-23.94a58.83,58.83,0,0,1,59.82-47,65.79,65.79,0,0,1,62.16,49.23,82.16,82.16,0,0,1-14.37,69.14c-14.7,20.75-36,26.21-60.06,21.59a57.21,57.21,0,0,1-48-45.62A218,218,0,0,1,1242.42,208.12Zm108.2,0a304.11,304.11,0,0,0-7.9-35.78,36.79,36.79,0,0,0-36-26.55,37.49,37.49,0,0,0-35.29,26.72,99.67,99.67,0,0,0,2.27,74.26,34.62,34.62,0,0,0,34.11,23.35,33.61,33.61,0,0,0,33.6-24.28,335.12,335.12,0,0,0,9.24-37.46Z" fill="#F2F2F2"/><path d="M1808.27,140.42h102.07v30.41c-4.62,1.84-7.48.75-9.58-4.37a33,33,0,0,0-8.4-12.69,28.79,28.79,0,0,0-14.53-6.38c-10.33-.93-20.75,0-31.67,0v52.92a171.56,171.56,0,0,0,24.61-1.51,16.8,16.8,0,0,0,12.94-15c0-1.93,2.6-3.36,4-5,.92,1.77,2.6,3.53,2.6,5.38V225c0,1.59-1.76,3.11-2.69,4.7-1.34-1.34-3.36-2.35-3.78-4-4.28-14.44-7.56-16.8-22.59-16.8h-15.38c0,12.6.59,24.7,0,36.8-1.09,19.32,5.55,21.34,21,20.91h14a31.15,31.15,0,0,0,32.93-28.3,9.82,9.82,0,0,1,.51-3.53H1920V274H1808.27c-1.59-4-.5-5.71,4.2-6.21,11.93-1.26,14.54-4.46,14.45-16.38v-87c0-10.67-3.36-14.53-14.11-16.8C1807.94,146.21,1807.94,146.21,1808.27,140.42Z" fill="#F2F2F2"/><path d="M1653.29,274.82h-49.82c-1.34,0-2.69-1.84-4-2.77a19.1,19.1,0,0,1,3.87-2.94c1.93-.75,4.2-.67,6.21-1.26a7.56,7.56,0,0,0,6.39-8.4,7.81,7.81,0,0,0-.67-2.27q-4.46-12.6-9.58-25.2a7,7,0,0,0-5.12-3.36h-39a7.72,7.72,0,0,0-5.63,4.29c-2.69,6.46-4.7,13.27-6.89,19.9-2.85,8.4,0,13.28,8.82,15.29a41.06,41.06,0,0,1,5.63.93,16.63,16.63,0,0,1,3.86,3c-1.34.93-2.6,2.69-3.94,2.77h-42.43c-1.34,0-2.6-1.76-3.94-2.77,1.09-1,2-2.85,3.19-2.94a20.58,20.58,0,0,0,18.31-16.38c13.69-36.29,27.89-72.33,42-108.53,1.1-2.78,1.43-6,6.05-6s5,3.36,6,6.13l43.6,110.63a19.14,19.14,0,0,0,15,13.28c1.6,0,2.77,2.6,4.12,4Zm-92.41-55.69h40.32c-6.8-16.8-13.35-32.6-20.58-50.4Z" fill="#F2F2F2"/><path d="M1439.41,146.8c-16.8,1.43-18.31,5.13-9.83,19.91,7.65,13,15.29,26.13,23.52,40.32,2.19-3.53,3.78-6.05,5.38-8.4l21.17-35c6.72-11.25,4.54-15.37-8.4-15.79H1466c1.76-2.52,2.77-5.63,4-5.71h40.23l1.94,1.42c-1.43,1.85-2.52,4.63-4.46,5.38a33.17,33.17,0,0,0-16.8,14.53c-10.08,16.8-20.07,33.19-29.73,50.41a25.14,25.14,0,0,0-2.78,11.5v28.15a14.63,14.63,0,0,0,12.09,16.77l.18,0h1.51a20.37,20.37,0,0,1,5.12,3.27c-1.84.84-3.61,2.44-5.46,2.44h-50.4c-1.68,0-3.27-1.51-5-2.27a20.18,20.18,0,0,1,4.54-2.94c3.19-1.09,6.72-1.43,9.83-2.69a10.4,10.4,0,0,0,7-10.41c0-10.67,0-21.42-.67-32a38.87,38.87,0,0,0-5.38-14.2c-9.66-17.55-19.23-34.35-28.81-52.08a19.24,19.24,0,0,0-14.62-10.33c-3.52-.5-5.79-1.6-3.69-6.64h51.24c1.76,0,3.44,2.1,5.12,3.28Z" fill="#F2F2F2"/><path d="M1780.89,274.24H1680.08a16.58,16.58,0,0,1-5.54-2.36c1.68-1.09,3.19-2.77,5-3,9.24-1.51,14-6.05,14-15.21V159.57c0-6.64-5.13-10.75-14.62-12.35-4.28-.76-4.28-.76-4.28-5.88a17.6,17.6,0,0,1,3.53-.67h48.63c1.6,0,3.2,1.59,4.79,2.52-1.51,1.17-2.85,3.27-4.53,3.53-12.94,2.18-14.45,3.86-14.37,16.8v89.63a12,12,0,0,0,9.66,13.94h1.18c24.36,5.38,45.36-3.1,52.08-28.22.5-1.68,2.27-3,3.44-4.54a21.34,21.34,0,0,1,1.68,5C1781.31,250.88,1780.89,262.14,1780.89,274.24Z" fill="#F2F2F2"/></g><g id="PALAYE"><path d="M0,101.52H86.36A62.51,62.51,0,0,1,102.07,104c32.5,8.4,42,32.51,33.09,60.82a51.41,51.41,0,0,1-37.38,33.6,96.78,96.78,0,0,1-21.42,2.94c-7.39.42-14.78,0-23.1,0V217.7c0,12.85.5,25.62,0,38.39a10,10,0,0,0,8.4,11.17c5.29,1.52,10.75,2.1,16.8,3.2v9H2.86V271c3.94-.58,7.89-.92,11.76-1.76a11.42,11.42,0,0,0,10.58-12,18.39,18.39,0,0,0,0-2.1V127.9a15.87,15.87,0,0,0-13.69-17.39L0,108.75Zm53.34,86.36c25.2,2.44,38.06,1,47.8-14.79a48.64,48.64,0,0,0-1.26-49.81c-9.07-11.42-29.4-16-46.54-10.67Z" fill="#F2F2F2"/><path d="M789.64,277.26H677.49V271.8c19.07-4.45,19-4.45,18.9-23.86V167.89c0-11.6-3.1-15.12-14.86-17.31l-3.87-.92V144H779.81v30.49c-4.79,1.68-7.39,0-9.49-4.45a48.41,48.41,0,0,0-9.16-13.61A19.36,19.36,0,0,0,750.07,151c-11.25-.75-22.51,0-34.35,0v52.25a187.88,187.88,0,0,0,21.75,0,18,18,0,0,0,15.63-15.62c.5-1.94,2.52-3.45,3.86-5.21.93,1.93,2.69,4,2.69,5.88v42a8.2,8.2,0,0,1,0,2.1c-3.7,1.77-5.38.59-6.38-3.53-3.2-13.52-7.65-16.8-21.34-16.8h-16V257c0,7.14,3.36,11.85,10.34,12.19a151,151,0,0,0,32.51,0,28.4,28.4,0,0,0,24-25.21c.51-2.18.84-4.53,1.6-9.07,2.43,2.27,5.29,3.61,5.29,5Z" fill="#F2F2F2"/><path d="M167.5,278.86h-49l-1.43-.93c1.34-1.43,2.52-3.95,4.11-4.11a20.67,20.67,0,0,0,17.48-15.46c13.69-36.29,27.89-72.33,42-108.53,1.18-2.86,1.26-6.64,6.3-6.64s5.12,3.69,6.3,6.64q21.75,55.1,43.43,110a18.81,18.81,0,0,0,15.37,13c1.6,0,2.77,2.69,4.12,4.12L255,279h-50.4c-1.34,0-2.6-1.76-3.86-2.77A13.11,13.11,0,0,1,204,273.4a42.46,42.46,0,0,1,5.71-.93,8.39,8.39,0,0,0,7.25-9.41,8.22,8.22,0,0,0-.78-2.6c-3.19-7.73-6.13-16.13-9.49-23.94a7.32,7.32,0,0,0-5.54-3.61H162a7.27,7.27,0,0,0-5.2,3.86c-2.69,6.55-4.71,13.27-6.89,20-3,8.91,0,13.7,9,15.63a24.9,24.9,0,0,1,5.62.92,17.82,17.82,0,0,1,4.12,3.87Zm15-103.92h-1.6L162,223h40.32Z" fill="#F2F2F2"/><path d="M447.66,274.82c-1.6,1.18-3.19,3.36-4.79,3.36h-42c-1.68,0-3.36-2.1-5-3.19l1-2,4.2-.76a18.65,18.65,0,0,0,15.79-12.94c13.86-37,28.39-73.75,42.76-110.8,1.17-3,1.43-6.64,6.47-6.55s4.78,3.61,5.79,6.38Q493.62,203,515,257.52a19.48,19.48,0,0,0,15.62,14.28c1.52,0,2.61,2.77,3.87,4.28l-1.26,1.77H482.18c-1,0-2-1.93-3.1-2.94.92-.84,1.76-2.27,2.85-2.52,15.63-3.87,16-4.54,10.25-19.74-.5-1.35-1-2.78-1.6-4.12-2.26-5.54-3.19-13-7.3-15.88s-11.51-.92-17.39-1H442.2a6,6,0,0,0-7.06,4.78,1.1,1.1,0,0,0,0,.51c-1.76,6.38-4.2,12.51-6.21,18.81-3,9.24-.59,13.53,9,15.63,2.69.59,5.46.92,8.4,1.34Zm33.6-52.16c-6.89-16.8-13.44-32.76-20.58-50.41l-19.83,50.41Z" fill="#F2F2F2"/><path d="M526.79,144.2h52c1.43,0,2.77,2.35,4.2,3.61l-1.18,1.76h-5.54c-8,.42-11.76,5.38-8.4,12.44,8.4,15.7,17.64,31,27.13,47.63l15.46-25.21c4-6.72,8.4-13.44,12.18-20.32,5.12-8.91,2.86-13.11-7.31-13.7h-5.8c-1.42-3.69-1.51-6.21,3.11-6.21h35.79c1.43,0,3.78,1.68,3.86,2.68a4.9,4.9,0,0,1-2.6,4,34.41,34.41,0,0,0-18.15,16.29c-9.32,15.54-18.81,31-27.72,46.71a33.75,33.75,0,0,0-3.53,13.61c-.58,9.07,0,18.31,0,27.47A14.88,14.88,0,0,0,613,271.77l.25,0h.59a19.45,19.45,0,0,1,5.46,3.44,19.23,19.23,0,0,1-6.39,2.19H563.67c-1.77,0-3.61-1.6-5.38-2.44a15.7,15.7,0,0,1,4.87-2.69c13.78-2.1,15.38-5.21,16.81-19.15a88.44,88.44,0,0,0-15.21-57.29c-7.22-11-12.68-23.19-19-34.78a19.16,19.16,0,0,0-15-10.67C526.45,150.25,524.77,148.82,526.79,144.2Z" fill="#F2F2F2"/><path d="M324.51,145c1.59,4.12.75,5.72-3.45,6.3-13.18,1.6-14.7,3.45-14.7,16.8v90.22c0,8,2.1,11.6,9.83,13.45,24.11,5.37,45.62-2.19,53.43-27.39a6.36,6.36,0,0,1,.75-2.44,29.91,29.91,0,0,1,2.78-2.85c.67,1.17,2,2.27,2,3.36v35.53c-2.35,0-4.45.51-6.47.51h-94c-3.1,0-7.05.75-5.29-5.13l3.45-.5a14.7,14.7,0,0,0,15.28-13.95,15.08,15.08,0,0,0,0-2.85V168c0-9.83-3.27-14.28-13.69-16.8-2.43-.5-6.55.42-5.37-4,.42-1.35,3.86-2.52,6-2.61C291,144.87,307.79,145,324.51,145Z" fill="#F2F2F2"/></g><g id="SYMBOL"><path d="M921.69,73.89a13.2,13.2,0,0,1-1.34-13.36c1.26-4.45,2.27-9,3.53-14.45a11.75,11.75,0,0,1,2.18,13.44C924.55,64,923.21,68.76,921.69,73.89Z" fill="#F2F2F2"/><path d="M926.65,345.13c-6.64-9.4,2.44-18.14,1.34-28.22a10.4,10.4,0,0,1,3.28,12.68C929.67,334.8,928.25,339.84,926.65,345.13Z" fill="#F2F2F2"/><path d="M932.45,194.52c-3.45,2-5.21,3.94-6.89,3.86a5.35,5.35,0,0,1-3.61-3.95,5.69,5.69,0,0,1,3.69-3.86C927.41,190.57,929.17,192.42,932.45,194.52Z" fill="#F2F2F2"/><path d="M932.45,109.92a147.44,147.44,0,0,1,14.45-10.5,13.52,13.52,0,0,1,19,2l.13.15a12,12,0,0,1,1.17,1.68,18.55,18.55,0,0,1-2.77,23.69,18.12,18.12,0,0,1-12.6,1.26A81.09,81.09,0,0,1,937,120.84l-7.14,10.25,13.28,17.56,2.35-2a25.2,25.2,0,0,1,27-7.31,24.62,24.62,0,0,1,16.8,22.18,25.24,25.24,0,0,0,7.31,15.88,31.5,31.5,0,0,1-1.09,44.52l-1.6,1.43a7.23,7.23,0,0,0-1.68,4.28V236c-2.26,16.8-15.29,23.27-29.82,15.12A120.09,120.09,0,0,1,946.9,239c-4.29,7-8.91,14.37-13.19,21.84a5.36,5.36,0,0,0,.75,4.37c1.93,2.78,4.29,5.21,6.3,7.65a126,126,0,0,1,12.6-8.4,14.7,14.7,0,0,1,18.15,2.94,20.34,20.34,0,0,1,0,20.07,11.44,11.44,0,0,1-13.78,3.87,123.2,123.2,0,0,1-14.11-7,81.42,81.42,0,0,0-7.31,9.74,8.36,8.36,0,0,0,0,5.71,229.22,229.22,0,0,1,7.48,27,42.59,42.59,0,0,1-13,37.21A187.08,187.08,0,0,1,934.46,383a8.4,8.4,0,0,1-7.22,9.41h-1.18a8.41,8.41,0,0,1-9.83-6.64,6.48,6.48,0,0,1,0-1.76,203.43,203.43,0,0,1,3-24.61c-16.8-21.43-15.12-34.28,8.4-68.22l-10.17-8.82a58.66,58.66,0,0,1-12.85,7.23,29.51,29.51,0,0,1-15.29.75,12.93,12.93,0,0,1-10.59-14.91v0a15.34,15.34,0,0,1,1.09-3.36c3.95-10.25,11.26-14.11,20.58-10.16A143.89,143.89,0,0,1,915.65,271c2.18-3.44,4.7-7,6.88-10.83a4.63,4.63,0,0,0,0-3.95c-4-5.63-8.4-11.17-12.51-16.8-4.37,3.44-8.4,6.8-12,9.41a28.66,28.66,0,0,1-25.2,4,19.91,19.91,0,0,1-16-20.67,31.72,31.72,0,0,0-4.79-18.06,37.07,37.07,0,0,1-.84-36.88,47.48,47.48,0,0,0,4.54-21.75,19.24,19.24,0,0,1,18-20.39l.56,0a20.56,20.56,0,0,1,6.38.76,81.18,81.18,0,0,1,19.07,9.58c1.34.75,2.27,2.52,3.78,4.2l17.64-24.11-8.4-9.66c-3.95,3.36-7.48,6.63-11.26,9.57a16.77,16.77,0,0,1-22.59,0,20.16,20.16,0,0,1,1.76-25.2,11.51,11.51,0,0,1,13.61-2.6c4.87,2.1,9.41,4.87,14.11,7.31,8.4-7.65,8.4-7.56,4-17.48C904,66.83,903,46.5,916.07,27a8.41,8.41,0,0,0,.5-5.8c-.5-4-1.93-8-2-11.92A8.41,8.41,0,0,1,922.11.13a8.54,8.54,0,0,1,2.94,0,8.39,8.39,0,0,1,9.24,7.47h0a9,9,0,0,1,0,3c-.75,5-3.1,9.66-4.36,14.62a8.32,8.32,0,0,0,0,6.13,44.26,44.26,0,0,1,6,46.45,58.78,58.78,0,0,1-7.64,15.38,7.73,7.73,0,0,0-.07,10.93l.07.07a5.89,5.89,0,0,0,1.6,1.34A17.32,17.32,0,0,1,932.45,109.92Zm-25.2,81.4c-4.37-4.87-8.41-9.24-12.27-13.27a5.8,5.8,0,0,0-4.54-.92,26.87,26.87,0,0,1-28.22-.93,32.68,32.68,0,0,0-2.44,42c7.31-9.66,16-14.19,27.39-6.8a7.05,7.05,0,0,0,3.69-1.51c5.3-6.22,10.76-12.18,16.39-18.57Zm37.13,7.48c3.61,3.95,6.46,7.39,9.74,10.42a5.81,5.81,0,0,0,5.21,1.17c11.17-5.79,21.17-5.79,29.15,5.13a25.21,25.21,0,0,0,4.87-35.29,27.05,27.05,0,0,0-4.87-4.87c-7.73,12.1-10.84,12.77-27.05,4.87Zm-39.65,33.6L892.8,219.13a27.48,27.48,0,0,1-30.92,4.37v7.89c0,16.8,12.35,23.69,26.63,15a163.22,163.22,0,0,0,16.8-14ZM924.05,33.31a46.12,46.12,0,0,0-4.29,57.88C936.81,73.47,939,46,924.05,33.31Zm0,324.09a42.68,42.68,0,0,0,7.81-57.21,45.2,45.2,0,0,0-7.81,57.21ZM986.8,227.53a93.37,93.37,0,0,1-13.61-2.27,96.09,96.09,0,0,1-12.27-5.8c-3.1,4-6.3,8-9.24,12.19a5,5,0,0,0-.58,4.36,28,28,0,0,0,25.2,11.43c6.05-1.43,10.41-8.4,11-18.57ZM862.72,163.85a23.36,23.36,0,0,1,27.89,5.3l11.68-16a27,27,0,0,0-28.9-8.41A17.9,17.9,0,0,0,862.72,163.85Zm96.19,6.39c8.4-7.14,17.3-4.29,25.87-4a18.21,18.21,0,0,0-10.33-20.41,25.8,25.8,0,0,0-26.55,11.34Zm-32.76,84.93c5-7.65,9.4-14.45,13.6-21.26a4.43,4.43,0,0,0,0-3.86c-3.19-4.2-6.72-8.4-10.5-12.52-5,5.88-9.74,11.09-14,16.8a5.51,5.51,0,0,0,0,4.88c3,5.12,6.63,9.91,10.92,16Zm-15.63-98,12.35,13.53c4.87-6,9.32-11.43,13.52-16.8a4.94,4.94,0,0,0,0-4.37c-3.1-4.79-6.55-9.24-10.41-14.45Zm33.6,2.1-16.8,19.32L937.23,190l19.07-17.39ZM913.38,275.5A20.75,20.75,0,0,0,896,267.09a12.94,12.94,0,0,0-11.09,14A9.07,9.07,0,0,0,895.71,288l.11,0h1a26.71,26.71,0,0,0,16.8-12.18Zm-5.63-164.57c-3.7-2.77-6.3-5-9.07-6.72A10.77,10.77,0,0,0,884.73,106a11.33,11.33,0,0,0-3.27,13.78c2.35,6,6.72,7.81,12.09,4a150,150,0,0,0,14.62-12.85Zm4.2,87.45L895.9,216.27l12,11.93,15-17.47ZM938.16,115v2.27a94.12,94.12,0,0,0,17.72,5.55,9.74,9.74,0,0,0,7.56-5.55,22.3,22.3,0,0,0-2.52-12.94c-.67-1.26-6.63-1.34-9,0A125.94,125.94,0,0,0,938.58,115Zm-30.24,44-12.6,14.2,13,15.79,11.84-15.54ZM943,228.71l12.35-15.29-13.44-12.1-11.76,13.86Zm2.1,50.4a34.83,34.83,0,0,0,6.39,5.21c3.27,1.34,8.4,3.94,10,2.6A17.37,17.37,0,0,0,968,276.17a6.3,6.3,0,0,0-3.37-8.25c-.14-.05-.27-.11-.41-.15a6.38,6.38,0,0,0-5.63.67,77.13,77.13,0,0,0-13,10.25Zm-21.08-71.57c15.62-17.9,14.19-11.76,3-25.21a3.38,3.38,0,0,1-1.6-.5l-10.83,13.36Zm14.11,69.13-7.73-10.16c-11,11.51-11,13.35-.59,20.83ZM922.45,123.28c9.24-10.58,10.08-9.91,0-18.4C914.05,113.87,914.05,113.87,922.45,123.28Zm-57.21,48.89a13.45,13.45,0,0,0,18.78,3l.12-.09a15.49,15.49,0,0,0,2.86-2.86C880.7,165.7,873.64,165.62,865.24,172.17Zm99.88,44.52a23.61,23.61,0,0,0,20.67,1.85C980.67,209.64,973.78,209.05,965.12,216.69Zm19.41-45.44a14.54,14.54,0,0,0-17.73,5.88C976.63,181.91,983.35,179.65,984.53,171.25Zm-118.7,49.56a14.71,14.71,0,0,0,19.41-5.63,14.19,14.19,0,0,0-19.32,5.46h0ZM921.27,20.37h2a64.11,64.11,0,0,0,4.87-9.24,7.72,7.72,0,0,0-.92-6.21,5,5,0,0,0-5-.67,8.39,8.39,0,0,0-2.94,5.62,56.61,56.61,0,0,0,1.93,10.5Zm5.88,351.31h-2a29,29,0,0,0-3.87,9.41c0,2.1,2.61,4.45,4,6.63,1.51-2,4.28-3.94,4.28-6a31.39,31.39,0,0,0-2.44-10Z" fill="#F2F2F2"/></g></g></g></g></svg>