<svg xmlns="http://www.w3.org/2000/svg" viewBox="0 0 1849.94 300.99"><g id="Layer_2" data-name="Layer 2"><g id="THE_BASTARDS"><path id="T" d="M28.35,88.85c-.38-.74-.59-1.76-1.2-2.17-16.86-11.3-23.28-26.92-18-46.45C14,22.53,31.68,8.81,52.91,8.56c14.09-.17,28.42,3,42.28,6.27,17.36,4,34.33,9.8,51.54,14.53,4.59,1.27,9.94,3.11,14.09,1.86,6-1.8,11.13-6.2,16.64-9.49-3.9-4.61-7.22-10-11.89-13.58-3.37-2.62-8.52-2.95-13.93-4.63,9.44-6.08,24.39-4,37,4.12,13.23,8.55,20.73,20.41,17.72,36.44C201.92,67.67,183.08,73.46,163,76.55c-4.09,24.3-4.5,46.79,22.74,62.35-32.08,17.69-23.95,44.88-23.45,71.84,19.14-9,25.85-27.32,37.11-42.4,9.06,23.53-10.82,61.85-40.28,80.46-40.84,25.81-97.69,17.24-132.72-20C-9.46,190.65-8.78,141,28.35,88.85Zm19.55,16,3.55,3.55,66.52-28c1.3,2.39,2,3.12,2,3.84.16,26.63-.36,53.27.65,79.86.47,12.33-3.22,18.9-15.22,22.9-14.45,4.83-28.18,11.86-43,18.25,22.11,22.25,57.68,28.86,82.73,16.24,3.24-1.64,7.22-6.13,7.19-9.26-.22-25.27,8.18-53.08-18.8-71.36-.52-.35-.41-1.61-.8-3.38,2.91-3.06,5.81-7,9.52-9.85,17.25-13.43,9.11-32,9.73-48.64.06-1.64-4.88-4.33-7.86-5.08-24.51-6.17-49-12.19-73.69-17.81-8.45-1.92-17.56-4.66-25.68-3.2-7,1.27-15.64,6.63-18.78,12.66-2.41,4.61,2.65,13.1,4.84,21.61C47.67,75.8,61.34,67.52,80.2,66.47Zm30.3,1.55c-11,4.55-19.72,7.18-27.33,11.74-4.56,2.73-9.51,8-10.5,13-4,20.12-2.08,40,8.8,57.86,2.19,3.6,8.76,8.28,11.17,7.28,6.85-2.82,17.78-2.18,17.83-13.87C78.28,158,78.2,133.73,78.2,106.37Z" fill="#F2F2F2"/><path id="B" d="M839.77,68,799.88,96.59c11.85,6.9,22.33,13.36,33.15,19.2,8.27,4.47,11.25,10.69,10.94,20.15-.66,20.48-.57,41,0,61.5.21,8.09-2.54,12.57-9.75,16.21q-45.54,23-90.54,47c-7.63,4.08-14,4.43-22,.84-24-10.78-49.36-16.08-75.17-9.6-14.45,3.62-27.87,11.48-41.62,17.7-3.58,1.62-6.7,4.24-11.11,5.07,7.83-18.32,21.26-31.5,37.23-41.85,9.78-6.35,20.42-12.59,31.56-15.36,17.33-4.31,21.71-16.17,22.06-30.91.66-27.47,2.1-55.1,0-82.41-1.78-23,5.67-40.33,23.71-52.71,22.14-15.19,45.16-29.14,68.34-42.72,3.29-1.93,11.54-.51,14.17,2.38C807.26,29.13,822.74,48,839.77,68ZM741.52,36.22C730.91,44.37,728.39,54,728.34,64.6c-.12,28.8-.32,57.6,0,86.39.18,15.74-4.91,29-15.85,40.17-5.65,5.74-11.4,11.37-17.71,17.65l46.73,8Zm10.65,82.64,44.75-33.24L752.17,32.73Zm48.64,68.56c-12.35,6.24-22.55,10.76-32.07,16.41-6.27,3.72-11.57,9.07-17.31,13.7q7.88,7.89,15.76,15.76a8.64,8.64,0,0,0,2.14,1.49c7.11,3.77,30.48-6.13,31.25-14C801.56,210.61,800.81,200.32,800.81,187.42Zm-47.56,13.86c12.52-6.27,24.12-11.95,35.59-17.85,13.87-7.14,15.76-13.11,9.18-30-10.49,5.27-20.57,11.42-31.42,15.52C751.69,174.6,748.32,184.53,753.25,201.28ZM752,166.68l45.76-23.57L752,120.33Z" fill="#F2F2F2"/><path id="H" d="M287,9.06V132.64l42.42-39c9.19,7.55,18.09,14.44,26.47,21.91,5.49,4.91,10.23,7.85,16.7,1.46,1.57-1.55,5.1-1.1,7.73-1.57-.86,2.77-.86,6.87-2.73,8.08-7.78,5-8.41,12.13-8.52,20.41-.44,34.84,1,70-2.89,104.45-4.2,36.84-40.45,59.46-77.86,50.74,3.5-2.84,5.52-5.23,8.1-6.45,17-8.07,26.57-22.53,27.68-40.14,2.22-35.21,3.11-70.6,1.87-105.82-.25-7.09-12.39-13.76-19.05-20.63-6.53,6.93-17.94,13.36-18.7,20.86-2.45,24.19-1.34,48.78-.83,73.2.23,10.48,7.22,14.17,18.21,11.77,2.27-.5,5,1,11.18,2.52-15.4,10.75-27.67,19.57-40.32,27.82-1.63,1.06-5.73-.13-7.78-1.57-5-3.49-9.36-7.82-14.11-11.66-8-6.5-15-17.14-27.55-7.51-.55.43-2.77-1.31-5.3-2.6,2-2.49,3.08-5.13,5-6,14.51-6.39,17.49-17.43,17.06-32.59-1.1-39.67-.59-79.4-.25-119.1.12-13.67.55-26.8-20.5-32L282.86,6.74Z" fill="#F2F2F2"/><path id="D" d="M1578.09,16.48c22.19,19.48,42.68,37.43,63.13,55.44,14.06,12.38,28.16,24.73,42,37.35,5.54,5.06,10.41,9.65,17.41,2,1.12-1.22,4.34-.53,6.58-.73-.44,2.52-.08,6.58-1.47,7.32-10.22,5.38-9.36,14.5-9.28,23.79.2,22.67-.21,45.34.17,68,.14,7.8-2,12.91-9.14,16.92-19,10.67-37.36,22.46-56.48,32.88-3.89,2.12-10,.29-15,.12-.74,0-1.39-1-2.17-1.38-31.92-14.39-45.68-37.88-39.36-73.42,2.41-13.52,1.23-27.9.13-41.76-.9-11.32,3.54-17.75,13.07-22.71,9.14-4.76,17.67-10.67,28.7-17.43l-38.29-33.52Zm42.71,91-3.32,1.23c0,33.46-.06,66.92.13,100.38,0,2.31,1.27,5.46,3,6.78,9.86,7.43,20,14.4,32,22.84.53-6.62,1-10,1-13.32,0-27.93.1-55.87-.21-83.8,0-2.64-1.92-5.86-3.94-7.79C1640.11,124.8,1630.4,116.19,1620.8,107.45Z" fill="#F2F2F2"/><path id="S" d="M1823.21,159.28c-1.2-1.89-.9-.75-.25-.49,29.92,11.63,27.84,36.93,26.13,61.82-.22,3.3-2.15,7.75-4.74,9.4-19.82,12.63-40,24.7-56.62,34.84-13.51-4.62-24.29-11.7-34.57-11-15.86,1-10.49,15.76-8.27,26.87-18.59-6.23-27.39-23.16-19.71-40.64,6.3-14.34,17.14-26.69,26.54-40.79-.25-.29-1.3-2.56-3-3.37-26.89-12.52-18.91-36.75-19.16-57.95,0-2.83,3.84-6.6,6.83-8.4,17.91-10.8,36-21.39,54.31-31.42,2.85-1.55,8.42-1.33,11.08.49,18.53,12.65,21.27,12.66,37.7-1.71,1.67-1.45,4.54-1.52,6.86-2.23.58,3,2.53,6.63,1.54,9C1840.35,121.45,1832.28,139,1823.21,159.28Zm-17.89,77.79c0-11.17,2.68-23.31-.89-33.18-2.62-7.24-17.23-17.7-20-16-13.11,7.95-24,19.58-35.65,29.9l1.63,2.92C1772.32,213.26,1789.07,220.94,1805.32,237.07Zm-31.16-118-2.9,1.74c0,11.19-.54,22.41.17,33.55.58,9.1,13,19.14,18.14,15.15,11.46-8.95,22.17-18.87,33.19-28.39l-.46-3.58C1801.84,142.23,1785.68,136.33,1774.16,119Z" fill="#F2F2F2"/><path id="S-2" data-name="S" d="M1147.43,93.88c-1.68,25-10.42,44.64-27.38,61.56,3,2.81,5.32,5.17,7.82,7.36,6.46,5.68,17.33,10.44,18.6,17.08,2.83,14.72,1,30.36.63,45.62-.06,1.94-2.77,4.35-4.82,5.63-19.54,12.19-39.21,24.19-59,36.33-9.54-9-18.24-18.21-32.41-13.66-15,4.83-6.4,16.85-6.46,26.05-17-3-27.25-21.05-19.8-38.59,6.3-14.81,17.17-27.68,26.66-42.42.38.45-.43-1.36-1.79-2-27.17-12.72-20-37.19-20-59,0-2.6,3.21-6.05,5.82-7.63q28-16.94,56.49-33c2.24-1.26,6.75-.89,9,.59,21.32,14.21,21.56,14.28,39.4-2.07C1141.29,94.7,1143.38,94.84,1147.43,93.88Zm-42,142.83c0-10.79.47-21.61-.15-32.37-.49-8.55-16.7-21.28-21.79-17.25-12.19,9.66-23.45,20.49-35.08,30.85C1072,213.28,1089.1,221,1105.42,236.71Zm16.51-95.3-.87-4c-20.18,5.29-35.79-1.8-48.5-17.78-1.23,12.89-1.82,24.14-1,35.3.64,9.27,13,18.67,18.2,14.47C1100.79,160.5,1111.23,150.79,1121.93,141.41Z" fill="#F2F2F2"/><path id="A" d="M1303.64,173.3c-3.88-2.46-6.39-4.06-8.9-5.64-24.5-15.31-22.76-37.44,1.32-53.42,25.74-17.07,48.71-21.43,72.27,2.3,3.89,3.92,9.44,6.18,14.09,9.12L1401,117c-.33,4.4,0,6.45-.59,6.78-16.2,9-15.84,24-15.22,39.58.66,16.55-.08,33.16.28,49.74.09,4.08,1,8.92,3.4,12,6.5,8.51,13.78,17.07,26.81,6.95-.74,1.75-1,4.12-2.32,5.15-4.81,3.75-10,7.09-15,10.53-8.29,5.64-16.65,15.69-24.88,15.58-7.56-.1-14.68-11.56-22.64-17.11-2.68-1.87-8.17-2.49-10.91-1a90.89,90.89,0,0,0-19,13.77c-8.81,8.41-17.83,7.45-27.62,2.83-31.2-14.74-36.65-47.89-11.45-71.36C1288.16,184.56,1295.42,179.71,1303.64,173.3Zm38.86,5.12c4.71-32,4.07-33.43-18.87-47.31-4.1-2.48-8.19-5-12.32-7.42-10.71-6.32-17.28-4.49-23,6.65-5.55,10.88-2,20.77,7.33,26.15C1310.08,164.8,1325.83,170.77,1342.5,178.42Zm1.89,33c0-27.49,0-27.49-25.37-33.54-.84-.21-1.87-1-2.43-.76-3.07,1.49-7.51,2.48-8.79,5-8.39,16.53,1.61,45,18.24,53.49,12.78,6.53,18.26,3.21,18.35-11.14C1344.41,220.08,1344.39,215.73,1344.39,211.38Z" fill="#F2F2F2"/><path id="A-2" data-name="A" d="M996.12,122.75c-22.74,9.09-18.33,27.82-18.48,44.88-.12,14.83-.39,29.67.19,44.48a28.63,28.63,0,0,0,4.59,14.26c6.35,9.39,14.44,15,26.42,2.1.21,2,.43,4,.64,6-14.33,9.93-28.48,20.15-43.25,29.39-1.69,1.06-7.48-2.75-10.28-5.43-18.26-17.47-18.16-17.57-38-3.15-18.35,13.37-28.38,12.81-45.7-2.55-14.42-12.78-18.47-32.69-9-48.49,3.75-6.22,9.06-11.67,14.4-16.68s11.47-8.88,18.17-14c-5.38-3.69-10.16-6.53-14.45-10-16.8-13.59-16-34.43,2.39-45.78a337.83,337.83,0,0,1,37-19.56c3.42-1.56,9.29-.64,12.78,1.34,11.35,6.46,22.27,13.7,33,21.1,5.88,4,10.79,6.81,17.08.4,1.89-1.92,6.34-1.34,9.62-1.91Zm-61.91,55.79c6.5-29,4.92-32.94-15.54-45.63-5.19-3.22-10.86-5.81-15.57-9.61-8.27-6.69-14.35-3.58-20,3.28-7.61,9.23-7.36,21.5,3.66,28.5C901.12,164.21,917.36,170.4,934.21,178.54ZM937,211.47c0-4.36.54-8.8-.15-13.05-.77-4.78-1.37-12.24-4.28-13.54-8.92-4-18.88-5.77-28.54-7.92-.87-.19-2.85,2.92-3.75,4.77-8.16,16.74,1.44,45.2,18.05,53.86,12.65,6.58,18.5,3.11,18.65-11.06C937.05,220.18,937,215.82,937,211.47Z" fill="#F2F2F2"/><path id="Bb" d="M600.17,51.69c6.18-24,31.33-41.74,57-41,8.21.25,16.35,2.93,24.56,3.22,15.28.55,30.59.16,47.21.16-5.41,4.64-10.69,9.4-16.22,13.85-9.51,7.64-18.82,15.61-28.86,22.48-12.08,8.26-16.36,19.17-16.07,33.48.56,27.89.35,55.8,0,83.69-.36,29.1-24.81,57.77-53.45,63-2.51.46-5.33-.75-11.38-1.72,25.69-20.42,23.06-46.78,22.62-72.3-.09-5-2.58-13.48-5.71-14.4-8.31-2.44-17.59-1.52-22.55,8-1.57,3-2.6,6.33-3.92,9.62-12.15-9.06-11.89-31.57,1.48-43.05,6.3-5.41,15.42-7.4,22.88-11.6,3.16-1.77,7.77-5.39,7.62-7.93-1-18,9.11-28.12,23.22-36.2,7.08-4,13.76-8.81,21.06-13.54C642.75,33,624.83,34,600.17,51.69Z" fill="#F2F2F2"/><path id="E" d="M480.64,93.35l33.92,51.73c-16.26,10.39-31.87,20.39-47.51,30.34-6.62,4.22-13.57,8-19.88,12.62-7.45,5.48-7.67,15.26-.32,20.85a283.18,283.18,0,0,0,29.14,20c3.13,1.82,9.36,1.54,12.45-.45,8.77-5.64,16.51-12.87,25-19,1.85-1.34,5.09-.74,7.69-1-.76,2.54-.72,6-2.42,7.47-19.38,16.29-38.87,32.46-58.81,48-2.21,1.74-8.26,1.07-11-.78C437,255,425.47,246.34,414.22,237.36c-6-4.79-10.88-6.32-16.9-.06-1.8,1.88-5.78,1.66-8.76,2.4,1-2.84,1.14-7.09,3.12-8.27,9-5.38,9.53-13.45,9.38-22.6-.37-21.39-.31-42.79.06-64.18.06-3.88,1.25-9.82,3.87-11.27C429.7,119.74,454.83,106.86,480.64,93.35Zm-2.47,67c-9.31-13.35-17.12-24.79-25.26-36-1.33-1.83-4.2-3.76-6.13-3.55-1.71.18-4.42,3.25-4.45,5.08-.34,18-.2,36-.2,57.52Z" fill="#F2F2F2"/><path id="R" d="M1492,127c0,10,0,18.09,0,26.13,0,20.94-.18,41.89,0,62.83.13,16.26,9.49,21.26,23.56,13.23,3.1-1.76,7.11-1.93,10.7-2.84l2,4.68c-15,10.94-29.9,22-45.15,32.6-1.71,1.18-5.77.19-8.09-1-3.41-1.8-6-5-9.33-7.11-11-7-18.61-23.24-36.82-10.76-.15-1.28-.29-2.55-.44-3.83,2-2.13,3.71-5.12,6.22-6.25,12.39-5.63,14.36-15.45,13.74-27.86-.91-18.28-.24-36.64-.29-55-.06-24.42-4.47-28.68-28.16-24.68,2.27-3.44,3.19-6.16,5.09-7.5,10.31-7.31,21.11-14,31.25-21.5,5.36-4,8.85-3.81,13.17,1.24,5.6,6.56,11.85,12.55,18.81,19.82l24.61-26.84c12.79,15.49,26.06,6.94,42-2.37-2.21,18.47-3.93,33.12-16.46,43.17C1522.65,145.81,1508.12,136.58,1492,127Z" fill="#F2F2F2"/><path id="T-2" data-name="T" d="M1164,239.85c2.92-3.6,3.84-5.88,5.42-6.52,16.32-6.51,18.6-19.24,17.47-34.92-1.17-16.06-.75-32.29-.12-48.42.51-13.14-1.1-24.42-13.08-27.63l56.24-56.79c.21,4.61.58,9.59.63,14.58.28,26.78-2.81,22,23.2,22.6,4.18.1,8.36.38,13.19.6-6.06,17.8-19.72,18.52-35.59,17.06-.3,6-.75,11-.77,16.08-.07,23.12,0,46.25,0,69.38,0,26.14,5.29,32.24,30.41,35.49-7.54,4.1-15,8.33-22.63,12.28-22.06,11.45-22.08,11.4-40.55-5C1184.92,237.21,1184.92,237.21,1164,239.85Z" fill="#F2F2F2"/></g></g></svg>