<svg width="25" height="20" viewBox="0 0 25 20" fill="none" xmlns="http://www.w3.org/2000/svg">
<path d="M25 2.37575C24.0806 2.76628 23.0802 3.04735 22.0496 3.15682C23.1196 2.53089 23.9208 1.54202 24.303 0.375752C23.299 0.963885 22.1991 1.37629 21.0522 1.59469C20.5728 1.09003 19.993 0.687999 19.3489 0.413643C18.7049 0.139287 18.0104 -0.00151415 17.3086 1.22793e-05C14.4694 1.22793e-05 12.186 2.26628 12.186 5.04735C12.186 5.43788 12.2341 5.82841 12.3122 6.20415C8.06093 5.98522 4.26932 3.98522 1.74859 0.923089C1.28928 1.69562 1.04859 2.57524 1.05156 3.47042C1.05156 5.2219 1.95589 6.76628 3.33494 7.67456C2.52225 7.64305 1.72859 7.42308 1.01851 7.03255V7.09468C1.01851 9.54734 2.77911 11.5799 5.12559 12.0473C4.68501 12.16 4.23178 12.2177 3.77659 12.2189C3.4431 12.2189 3.12763 12.1864 2.80916 12.142C3.45812 14.142 5.34791 15.5947 7.59825 15.642C5.83764 17 3.63238 17.7988 1.23783 17.7988C0.808196 17.7988 0.411609 17.784 0 17.7367C2.27136 19.1716 4.96635 20 7.86865 20C17.2906 20 22.4462 12.3136 22.4462 5.64202C22.4462 5.42309 22.4462 5.20415 22.4312 4.98522C23.4287 4.26628 24.303 3.37575 25 2.37575Z" fill="white"/>
</svg>
