<svg width="20" height="20" viewBox="0 0 20 20" fill="none" xmlns="http://www.w3.org/2000/svg">
<path d="M10 0C7.24638 0 4.8913 0.978261 2.93478 2.93478C0.978261 4.8913 0 7.24638 0 10C0 12.7536 0.978261 15.1087 2.93478 17.0652C4.8913 19.0217 7.24638 20 10 20C12.7536 20 15.1087 19.0217 17.0652 17.0652C19.0217 15.1087 20 12.7536 20 10C20 7.24638 19.0217 4.8913 17.0652 2.93478C15.1087 0.978261 12.7536 0 10 0ZM10 18C7.7971 18 5.91304 17.2174 4.34783 15.6522C2.78261 14.087 2 12.2029 2 10C2 7.7971 2.78261 5.91304 4.34783 4.34783C5.91304 2.78261 7.7971 2 10 2C12.2029 2 14.087 2.78261 15.6522 4.34783C17.2174 5.91304 18 7.7971 18 10C18 12.2029 17.2174 14.087 15.6522 15.6522C14.087 17.2174 12.2029 18 10 18ZM13.6522 12.6957C13.6812 13.1014 13.558 13.4783 13.2826 13.8261C13.0072 14.1739 12.6522 14.3768 12.2174 14.4348C11.8116 14.4638 11.4493 14.3478 11.1304 14.087C10.8116 13.8261 10.6232 13.4928 10.5652 13.087C10.5362 12.6522 10.6667 12.2681 10.9565 11.9348C11.2464 11.6014 11.5942 11.4058 12 11.3478C12.2319 11.3188 12.4928 11.3478 12.7826 11.4348V7.26087L8.73913 8V13.2609C8.76812 13.6957 8.65217 14.0797 8.3913 14.413C8.13043 14.7464 7.78261 14.942 7.34783 15C6.91304 15.029 6.53623 14.913 6.21739 14.6522C5.89855 14.3913 5.71015 14.058 5.65217 13.6522C5.62319 13.2174 5.74638 12.8261 6.02174 12.4783C6.2971 12.1304 6.65217 11.942 7.08696 11.913C7.31884 11.8841 7.57971 11.913 7.86957 12V6L13.6522 5V12.6957Z" fill="white"/>
</svg>
