<svg width="20" height="20" viewBox="0 0 20 20" fill="none" xmlns="http://www.w3.org/2000/svg">
<path d="M10 18C12.1217 18 14.1566 17.1571 15.6569 15.6569C17.1571 14.1566 18 12.1217 18 10C18 7.87827 17.1571 5.84344 15.6569 4.34315C14.1566 2.84285 12.1217 2 10 2C7.87827 2 5.84344 2.84285 4.34315 4.34315C2.84285 5.84344 2 7.87827 2 10C2 12.1217 2.84285 14.1566 4.34315 15.6569C5.84344 17.1571 7.87827 18 10 18V18ZM10 20C4.477 20 0 15.523 0 10C0 4.477 4.477 0 10 0C15.523 0 20 4.477 20 10C20 15.523 15.523 20 10 20Z" fill="white"/>
<path d="M5.00012 12.111H6.82012V13.111H5.00012V12.111Z" fill="white"/>
<path d="M5.00012 11.421H6.82012V12.421H5.00012V11.421Z" fill="white"/>
<path d="M5.00012 10.731H6.82012V11.731H5.00012V10.731Z" fill="white"/>
<path d="M5.00012 10.0411H6.82012V11.0411H5.00012V10.0411Z" fill="white"/>
<path d="M5.00012 9.35095H6.82012V10.351H5.00012V9.35095ZM7.04112 12.111H8.86112V13.111H7.04112V12.111Z" fill="white"/>
<path d="M7.04102 11.421H8.86102V12.421H7.04102V11.421Z" fill="white"/>
<path d="M7.04102 10.731H8.86102V11.731H7.04102V10.731ZM9.08202 12.111H10.902V13.111H9.08202V12.111Z" fill="white"/>
<path d="M9.08203 11.421H10.902V12.421H9.08203V11.421Z" fill="white"/>
<path d="M9.08203 10.731H10.902V11.731H9.08203V10.731Z" fill="white"/>
<path d="M9.08203 10.0411H10.902V11.0411H9.08203V10.0411Z" fill="white"/>
<path d="M9.08203 9.35095H10.902V10.351H9.08203V9.35095Z" fill="white"/>
<path d="M9.08203 8.66003H10.902V9.66003H9.08203V8.66003Z" fill="white"/>
<path d="M9.08203 7.96997H10.902V8.96997H9.08203V7.96997ZM11.123 12.111H12.944V13.111H11.123V12.111Z" fill="white"/>
<path d="M11.123 11.421H12.944V12.421H11.123V11.421Z" fill="white"/>
<path d="M11.123 10.731H12.944V11.731H11.123V10.731Z" fill="white"/>
<path d="M11.123 10.0411H12.944V11.0411H11.123V10.0411Z" fill="white"/>
<path d="M11.123 9.35095H12.944V10.351H11.123V9.35095ZM13.164 12.111H14.984V13.111H13.164V12.111Z" fill="white"/>
<path d="M13.1641 11.421H14.9841V12.421H13.1641V11.421Z" fill="white"/>
<path d="M13.1641 10.731H14.9841V11.731H13.1641V10.731Z" fill="white"/>
<path d="M13.1641 10.0411H14.9841V11.0411H13.1641V10.0411Z" fill="white"/>
<path d="M13.1641 9.35004H14.9841V10.35H13.1641V9.35004Z" fill="white"/>
<path d="M13.1641 8.66003H14.9841V9.66003H13.1641V8.66003Z" fill="white"/>
<path d="M13.1641 7.96997H14.9841V8.96997H13.1641V7.96997Z" fill="white"/>
<path d="M13.1641 7.27997H14.9841V8.27997H13.1641V7.27997Z" fill="white"/>
</svg>
